<svg xmlns="http://www.w3.org/2000/svg" xmlns:xlink="http://www.w3.org/1999/xlink" xmlns:lucid="lucid" width="1984.67" height="718.67"><g transform="translate(-156.3333333332945 -356)" lucid:page-tab-id="0_0"><path d="M0 0h2500v1500H0z" fill="#fff"/><path d="M532 700.12a6 6 0 0 1 6-6h334.67a6 6 0 0 1 6 6v99.76a6 6 0 0 1-6 6H538a6 6 0 0 1-6-6z" stroke="#000" stroke-width="2" fill="#fff"/><use xlink:href="#a" transform="matrix(1,0,0,1,543.9999999999611,706.1187499999612) translate(0 37.16666666666667)"/><use xlink:href="#b" transform="matrix(1,0,0,1,543.9999999999611,706.1187499999612) translate(0 68.14166666666667)"/><use xlink:href="#c" transform="matrix(1,0,0,1,543.9999999999611,706.1187499999612) translate(257.04166666666663 68.14166666666667)"/><path d="M705.33 692.62v-48.57" stroke="#3a414a" fill="none"/><path d="M705.8 693.12h-.94v-.5h.95z" stroke="#3a414a" stroke-width=".05" fill="#3a414a"/><path d="M705.33 629.3l4.64 14.25h-9.27z" stroke="#3a414a" fill="#3a414a"/><path d="M532 546a6 6 0 0 1 6-6h334.67a6 6 0 0 1 6 6v74.67a6 6 0 0 1-6 6H538a6 6 0 0 1-6-6z" stroke="#000" stroke-width="2" fill="#fff"/><use xlink:href="#d" transform="matrix(1,0,0,1,543.9999999999613,551.9999999999611) translate(0 24.604166666666668)"/><use xlink:href="#e" transform="matrix(1,0,0,1,543.9999999999613,551.9999999999611) translate(0 55.579166666666666)"/><use xlink:href="#f" transform="matrix(1,0,0,1,543.9999999999613,551.9999999999611) translate(90.05208333333334 55.579166666666666)"/><path d="M532 879.33a6 6 0 0 1 6-6h334.67a6 6 0 0 1 6 6V954a6 6 0 0 1-6 6H538a6 6 0 0 1-6-6z" stroke="#000" stroke-width="2" fill="#fff"/><use xlink:href="#g" transform="matrix(1,0,0,1,543.9999999999613,885.3333333332557) translate(0 24.604166666666668)"/><use xlink:href="#h" transform="matrix(1,0,0,1,543.9999999999613,885.3333333332557) translate(0 55.579166666666666)"/><use xlink:href="#c" transform="matrix(1,0,0,1,543.9999999999613,885.3333333332557) translate(103.85416666666667 55.579166666666666)"/><path d="M705.33 871.83v-48.55" stroke="#3a414a" fill="none"/><path d="M705.8 872.33h-.94v-.5h.95z" stroke="#3a414a" stroke-width=".05" fill="#3a414a"/><path d="M705.33 808.5l4.64 14.27h-9.27z" stroke="#3a414a" fill="#3a414a"/><path d="M157.33 712.67a6 6 0 0 1 6-6H466a6 6 0 0 1 6 6v74.66a6 6 0 0 1-6 6H163.33a6 6 0 0 1-6-6z" stroke="#000" stroke-width="2" fill="#fff"/><use xlink:href="#i" transform="matrix(1,0,0,1,169.3333333332945,718.6666666666279) translate(0 40.35416666666667)"/><path d="M473.5 750h41.12" stroke="#3a414a" fill="none"/><path d="M473.5 750.48h-.5v-.96h.5z" stroke="#3a414a" stroke-width=".05" fill="#3a414a"/><path d="M529.38 750l-14.26 4.63v-9.26z" stroke="#3a414a" fill="#3a414a"/><path d="M314.67 705.17V589.33a6 6 0 0 1 6-6h193.95" stroke="#3a414a" fill="none"/><path d="M315.14 705.67h-.95v-.52h.94z" stroke="#3a414a" stroke-width=".05" fill="#3a414a"/><path d="M529.38 583.33l-14.26 4.64v-9.27z" stroke="#3a414a" fill="#3a414a"/><path d="M953.33 866.8a6 6 0 0 1 6-6h245.34a6 6 0 0 1 6 6v99.75a6 6 0 0 1-6 6H959.33a6 6 0 0 1-6-6z" stroke="#000" stroke-width="2" fill="#fff"/><use xlink:href="#g" transform="matrix(1,0,0,1,965.3333333332557,872.7854166665891) translate(0 37.16666666666667)"/><use xlink:href="#j" transform="matrix(1,0,0,1,965.3333333332557,872.7854166665891) translate(0 68.14166666666667)"/><use xlink:href="#f" transform="matrix(1,0,0,1,965.3333333332557,872.7854166665891) translate(115.05208333333334 68.14166666666667)"/><path d="M880.17 916.67h55.78" stroke="#3a414a" fill="none"/><path d="M880.18 917.14h-.5v-.95h.5z" stroke="#3a414a" stroke-width=".05" fill="#3a414a"/><path d="M950.7 916.67l-14.25 4.63v-9.27z" stroke="#3a414a" fill="#3a414a"/><path d="M958.67 700.12a6 6 0 0 1 6-6h240a6 6 0 0 1 6 6v99.76a6 6 0 0 1-6 6h-240a6 6 0 0 1-6-6z" stroke="#000" stroke-width="2" fill="#fff"/><use xlink:href="#a" transform="matrix(1,0,0,1,970.6666666666279,706.1187499999612) translate(0 37.16666666666667)"/><use xlink:href="#k" transform="matrix(1,0,0,1,970.6666666666279,706.1187499999612) translate(0 68.14166666666667)"/><use xlink:href="#l" transform="matrix(1,0,0,1,970.6666666666279,706.1187499999612) translate(6.000000000000001 68.14166666666667)"/><use xlink:href="#f" transform="matrix(1,0,0,1,970.6666666666279,706.1187499999612) translate(121.05208333333334 68.14166666666667)"/><path d="M880.17 750h61.1" stroke="#3a414a" fill="none"/><path d="M880.18 750.48h-.5v-.96h.5z" stroke="#3a414a" stroke-width=".05" fill="#3a414a"/><path d="M956.05 750l-14.27 4.63v-9.26z" stroke="#3a414a" fill="#3a414a"/><path d="M537.33 413.2a6 6 0 0 1 6-6h296.14a6 6 0 0 1 6 6v54.24a6 6 0 0 1-6 6H543.33a6 6 0 0 1-6-6z" fill="none"/><use xlink:href="#m" transform="matrix(1,0,0,1,542.3333333332947,412.21458333337216) translate(0 20.508463541666668)"/><use xlink:href="#n" transform="matrix(1,0,0,1,542.3333333332947,412.21458333337216) translate(89.1384548611111 20.508463541666668)"/><use xlink:href="#o" transform="matrix(1,0,0,1,542.3333333332947,412.21458333337216) translate(189.1710069444444 20.508463541666668)"/><use xlink:href="#p" transform="matrix(1,0,0,1,542.3333333332947,412.21458333337216) translate(0 51.172526041666664)"/><use xlink:href="#q" transform="matrix(1,0,0,1,542.3333333332947,412.21458333337216) translate(85.59027777777777 51.172526041666664)"/><use xlink:href="#r" transform="matrix(1,0,0,1,542.3333333332947,412.21458333337216) translate(129.4704861111111 51.172526041666664)"/><use xlink:href="#s" transform="matrix(1,0,0,1,542.3333333332947,412.21458333337216) translate(203.99305555555554 51.172526041666664)"/><path d="M1386.67 737.45a6 6 0 0 1 6-6H1734a6 6 0 0 1 6 6v99.76a6 6 0 0 1-6 6h-341.33a6 6 0 0 1-6-6z" stroke="#000" stroke-width="2" fill="#fff"/><use xlink:href="#t" transform="matrix(1,0,0,1,1398.6666666666667,743.4520833332945) translate(0 37.16666666666667)"/><use xlink:href="#b" transform="matrix(1,0,0,1,1398.6666666666667,743.4520833332945) translate(0 68.14166666666667)"/><use xlink:href="#c" transform="matrix(1,0,0,1,1398.6666666666667,743.4520833332945) translate(257.04166666666663 68.14166666666667)"/><path d="M1563.33 729.95v-48.57" stroke="#3a414a" fill="none"/><path d="M1563.8 730.45h-.94v-.5h.95z" stroke="#3a414a" stroke-width=".05" fill="#3a414a"/><path d="M1563.33 666.62l4.64 14.26h-9.27z" stroke="#3a414a" fill="#3a414a"/><path d="M1386.67 583.33a6 6 0 0 1 6-6H1734a6 6 0 0 1 6 6V658a6 6 0 0 1-6 6h-341.33a6 6 0 0 1-6-6z" stroke="#000" stroke-width="2" fill="#fff"/><use xlink:href="#u" transform="matrix(1,0,0,1,1398.6666666666665,589.3333333333333) translate(0 24.604166666666668)"/><use xlink:href="#e" transform="matrix(1,0,0,1,1398.6666666666665,589.3333333333333) translate(0 55.579166666666666)"/><use xlink:href="#f" transform="matrix(1,0,0,1,1398.6666666666665,589.3333333333333) translate(90.05208333333334 55.579166666666666)"/><path d="M1386.67 916.67a6 6 0 0 1 6-6H1734a6 6 0 0 1 6 6v74.66a6 6 0 0 1-6 6h-341.33a6 6 0 0 1-6-6z" stroke="#000" stroke-width="2" fill="#fff"/><g><use xlink:href="#v" transform="matrix(1,0,0,1,1398.6666666666667,922.666666666589) translate(0 24.604166666666668)"/><use xlink:href="#h" transform="matrix(1,0,0,1,1398.6666666666667,922.666666666589) translate(0 55.579166666666666)"/><use xlink:href="#c" transform="matrix(1,0,0,1,1398.6666666666667,922.666666666589) translate(103.85416666666667 55.579166666666666)"/></g><path d="M1563.33 909.17V860.6" stroke="#3a414a" fill="none"/><path d="M1563.8 909.67h-.94v-.52h.95z" stroke="#3a414a" stroke-width=".05" fill="#3a414a"/><path d="M1563.33 845.83l4.64 14.27h-9.27z" stroke="#3a414a" fill="#3a414a"/><path d="M1814.67 916.67a6 6 0 0 1 6-6H2134a6 6 0 0 1 6 6v74.66a6 6 0 0 1-6 6h-313.33a6 6 0 0 1-6-6z" stroke="#000" stroke-width="2" fill="#fff"/><g><use xlink:href="#v" transform="matrix(1,0,0,1,1826.6666666666863,922.666666666589) translate(0 24.604166666666668)"/><use xlink:href="#w" transform="matrix(1,0,0,1,1826.6666666666863,922.666666666589) translate(0 55.579166666666666)"/></g><path d="M1741.5 954h55.78" stroke="#3a414a" fill="none"/><path d="M1741.5 954.48h-.5v-.96h.5z" stroke="#3a414a" stroke-width=".05" fill="#3a414a"/><path d="M1812.05 954l-14.27 4.63v-9.26z" stroke="#3a414a" fill="#3a414a"/><path d="M1820 750a6 6 0 0 1 6-6h308a6 6 0 0 1 6 6v74.67a6 6 0 0 1-6 6h-308a6 6 0 0 1-6-6z" stroke="#000" stroke-width="2" fill="#fff"/><g><use xlink:href="#t" transform="matrix(1,0,0,1,1832.0000000000002,755.9999999999611) translate(0 24.604166666666668)"/><use xlink:href="#w" transform="matrix(1,0,0,1,1832.0000000000002,755.9999999999611) translate(0 55.579166666666666)"/></g><path d="M1741.5 787.33h61.12" stroke="#3a414a" fill="none"/><path d="M1741.5 787.8h-.5v-.94h.5z" stroke="#3a414a" stroke-width=".05" fill="#3a414a"/><path d="M1817.38 787.33l-14.26 4.64v-9.27z" stroke="#3a414a" fill="#3a414a"/><path d="M1386.67 439.88a6 6 0 0 1 6-6h300.48a6 6 0 0 1 6 6v54.23a6 6 0 0 1-6 6h-300.48a6 6 0 0 1-6-6z" fill="none"/><g><use xlink:href="#x" transform="matrix(1,0,0,1,1391.6666666666667,438.8812500000388) translate(0 20.508463541666668)"/><use xlink:href="#n" transform="matrix(1,0,0,1,1391.6666666666667,438.8812500000388) translate(133.73480902777777 20.508463541666668)"/><use xlink:href="#o" transform="matrix(1,0,0,1,1391.6666666666667,438.8812500000388) translate(233.7673611111111 20.508463541666668)"/><use xlink:href="#p" transform="matrix(1,0,0,1,1391.6666666666667,438.8812500000388) translate(0 51.172526041666664)"/><use xlink:href="#q" transform="matrix(1,0,0,1,1391.6666666666667,438.8812500000388) translate(85.59027777777777 51.172526041666664)"/><use xlink:href="#r" transform="matrix(1,0,0,1,1391.6666666666667,438.8812500000388) translate(129.4704861111111 51.172526041666664)"/><use xlink:href="#s" transform="matrix(1,0,0,1,1391.6666666666667,438.8812500000388) translate(203.99305555555554 51.172526041666664)"/></g><g><path d="M1268 357v716.67" stroke="#000" stroke-width="2" stroke-linecap="round" fill="none"/></g><defs><path d="M783 20c-382 0-661-292-661-764 0-473 279-766 661-766 302 0 548 182 601 489h-190c-42-204-217-313-411-313-268 0-476 208-476 590 0 381 209 588 476 588 195 0 369-110 411-313h190c-52 303-296 489-601 489" id="y"/><path d="M934 0v166H0V0h934" id="z"/><path d="M180 0v-1490h510c348 0 508 209 508 474 0 266-160 477-507 477H370V0H180zm190-706h312c236 0 327-133 327-310 0-176-91-307-329-307H370v617" id="A"/><path d="M158 0v-1118h174v172h12c41-113 157-188 290-188 26 0 70 2 91 3v181c-11-2-60-10-108-10-161 0-279 109-279 260V0H158" id="B"/><path d="M613 24c-304 0-509-231-509-576 0-350 205-580 509-580 305 0 511 230 511 580 0 345-206 576-511 576zm0-161c226 0 329-195 329-415 0-222-103-419-329-419-223 0-326 196-326 419 0 220 103 415 326 415" id="C"/><path d="M577 24c-279 0-473-224-473-580 0-354 195-576 474-576 218 0 287 134 324 193h14v-551h180V0H922v-173h-20C865-111 790 24 577 24zm27-161c203 0 314-172 314-421 0-247-108-413-314-413-212 0-317 181-317 413 0 235 108 421 317 421" id="D"/><path d="M537 14c-226 0-379-139-379-422v-710h180v695c0 172 97 275 253 275 160 0 281-109 281-300v-670h181V0H879v-209C806-46 684 14 537 14" id="E"/><path d="M613 24c-304 0-509-231-509-576 0-350 205-580 509-580 216 0 392 114 453 309l-173 49c-33-115-133-197-280-197-223 0-326 196-326 419 0 220 103 415 326 415 150 0 252-85 285-206l172 49C1010-95 832 24 613 24" id="F"/><path d="M598-1118v154H368v674c0 100 37 144 132 144 23 0 62-6 92-12L629-6c-37 13-88 20-134 20-193 0-307-107-307-290v-688H20v-154h168v-266h180v266h230" id="G"/><path d="M98-1322v-168h1126v168H757V0H567v-1322H98" id="H"/><g id="a"><use transform="matrix(0.010416666666666668,0,0,0.010416666666666668,0,0)" xlink:href="#y"/><use transform="matrix(0.010416666666666668,0,0,0.010416666666666668,14.739583333333336,0)" xlink:href="#z"/><use transform="matrix(0.010416666666666668,0,0,0.010416666666666668,25.187500000000004,0)" xlink:href="#A"/><use transform="matrix(0.010416666666666668,0,0,0.010416666666666668,38.81250000000001,0)" xlink:href="#B"/><use transform="matrix(0.010416666666666668,0,0,0.010416666666666668,46.489583333333336,0)" xlink:href="#C"/><use transform="matrix(0.010416666666666668,0,0,0.010416666666666668,59.281250000000014,0)" xlink:href="#D"/><use transform="matrix(0.010416666666666668,0,0,0.010416666666666668,72.34375000000001,0)" xlink:href="#E"/><use transform="matrix(0.010416666666666668,0,0,0.010416666666666668,84.95833333333334,0)" xlink:href="#F"/><use transform="matrix(0.010416666666666668,0,0,0.010416666666666668,97.14583333333334,0)" xlink:href="#G"/><use transform="matrix(0.010416666666666668,0,0,0.010416666666666668,104.12500000000001,0)" xlink:href="#A"/><use transform="matrix(0.010416666666666668,0,0,0.010416666666666668,117.75000000000001,0)" xlink:href="#B"/><use transform="matrix(0.010416666666666668,0,0,0.010416666666666668,125.42708333333334,0)" xlink:href="#C"/><use transform="matrix(0.010416666666666668,0,0,0.010416666666666668,138.21875,0)" xlink:href="#F"/><use transform="matrix(0.010416666666666668,0,0,0.010416666666666668,148.73958333333334,0)" xlink:href="#H"/><use transform="matrix(0.010416666666666668,0,0,0.010416666666666668,162.51041666666669,0)" xlink:href="#A"/></g><path d="M218-607c0-325 108-727 258-974h175c-155 315-250 682-250 974 0 265 78 531 250 886H476C306-10 218-315 218-607" id="I"/><path d="M157-1118h181V80c1 225-123 350-364 338V252c126 9 184-48 183-172v-1198zm91-183c-68 0-125-53-125-119s57-119 125-119c69 0 126 53 126 119s-57 119-126 119" id="J"/><path d="M628 24c-324 0-524-230-524-574 0-343 198-582 503-582 237 0 487 146 487 559v75H286c9 234 145 362 343 362 132 0 231-58 273-172l174 48C1024-91 857 24 628 24zM287-650h624c-17-190-120-322-304-322-192 0-309 151-320 322" id="K"/><path d="M158 0v-1118h180V0H158zm91-1301c-68 0-125-53-125-119s57-119 125-119c69 0 126 53 126 119s-57 119-126 119" id="L"/><path d="M338-670V0H158v-1118h173l1 207c72-158 192-221 342-221 226 0 378 139 378 422V0H872v-695c0-172-96-275-252-275-161 0-282 109-282 300" id="M"/><path d="M692-1560L212 224H46l480-1784h166" id="N"/><path d="M538 24C308 24 148-78 108-271l171-41c32 123 123 178 257 178 156 0 256-77 256-169 0-77-54-128-164-154l-186-44c-203-48-300-148-300-305 0-192 176-326 414-326 230 0 351 112 402 269l-163 42c-31-80-94-158-238-158-133 0-233 69-233 162 0 83 57 129 188 160l169 40c203 48 298 149 298 302 0 196-179 339-441 339" id="O"/><path d="M158 0v-1118h175l1 205c55-151 181-225 313-225 147 0 245 90 285 228 53-141 190-228 352-228 194 0 352 125 352 384V0h-181v-749c0-161-105-225-225-225-151 0-243 103-243 244V0H807v-767c0-124-93-207-219-207-131 0-250 92-250 270V0H158" id="P"/><path d="M158 418v-1536h174v179h20c37-59 106-193 324-193 279 0 474 222 474 576 0 356-194 580-473 580-213 0-288-135-325-197h-14v591H158zm492-555c209 0 317-186 317-421 0-232-105-413-317-413-206 0-314 166-314 413 0 249 111 421 314 421" id="Q"/><g id="b"><use transform="matrix(0.010416666666666668,0,0,0.010416666666666668,0,0)" xlink:href="#I"/><use transform="matrix(0.010416666666666668,0,0,0.010416666666666668,7.781250000000001,0)" xlink:href="#A"/><use transform="matrix(0.010416666666666668,0,0,0.010416666666666668,21.406250000000004,0)" xlink:href="#B"/><use transform="matrix(0.010416666666666668,0,0,0.010416666666666668,29.083333333333336,0)" xlink:href="#C"/><use transform="matrix(0.010416666666666668,0,0,0.010416666666666668,41.875,0)" xlink:href="#J"/><use transform="matrix(0.010416666666666668,0,0,0.010416666666666668,47.041666666666664,0)" xlink:href="#K"/><use transform="matrix(0.010416666666666668,0,0,0.010416666666666668,59.479166666666664,0)" xlink:href="#F"/><use transform="matrix(0.010416666666666668,0,0,0.010416666666666668,71.66666666666667,0)" xlink:href="#G"/><use transform="matrix(0.010416666666666668,0,0,0.010416666666666668,78.64583333333334,0)" xlink:href="#L"/><use transform="matrix(0.010416666666666668,0,0,0.010416666666666668,83.81250000000001,0)" xlink:href="#C"/><use transform="matrix(0.010416666666666668,0,0,0.010416666666666668,96.60416666666667,0)" xlink:href="#M"/><use transform="matrix(0.010416666666666668,0,0,0.010416666666666668,109.20833333333337,0)" xlink:href="#N"/><use transform="matrix(0.010416666666666668,0,0,0.010416666666666668,116.89583333333337,0)" xlink:href="#y"/><use transform="matrix(0.010416666666666668,0,0,0.010416666666666668,132.47916666666669,0)" xlink:href="#C"/><use transform="matrix(0.010416666666666668,0,0,0.010416666666666668,145.27083333333334,0)" xlink:href="#M"/><use transform="matrix(0.010416666666666668,0,0,0.010416666666666668,157.875,0)" xlink:href="#O"/><use transform="matrix(0.010416666666666668,0,0,0.010416666666666668,169.13541666666666,0)" xlink:href="#E"/><use transform="matrix(0.010416666666666668,0,0,0.010416666666666668,181.74999999999997,0)" xlink:href="#P"/><use transform="matrix(0.010416666666666668,0,0,0.010416666666666668,200.43749999999997,0)" xlink:href="#Q"/><use transform="matrix(0.010416666666666668,0,0,0.010416666666666668,213.5,0)" xlink:href="#G"/><use transform="matrix(0.010416666666666668,0,0,0.010416666666666668,220.47916666666666,0)" xlink:href="#L"/><use transform="matrix(0.010416666666666668,0,0,0.010416666666666668,225.64583333333331,0)" xlink:href="#C"/><use transform="matrix(0.010416666666666668,0,0,0.010416666666666668,238.4375,0)" xlink:href="#M"/></g><path d="M600 0L52-1490h200c166 485 304 806 458 1336 156-533 285-846 449-1336h202L819 0H600" id="R"/><path d="M409 0L70-1118h191c89 329 165 560 243 925 75-353 154-601 240-925h192c85 325 161 564 235 922 77-354 157-598 244-922h191L1267 0h-179c-86-307-176-590-250-913C763-588 675-308 588 0H409" id="S"/><path d="M96 279C273-86 346-350 346-607c0-292-95-659-250-974h175c150 246 258 650 258 974 0 297-91 602-258 886H96" id="T"/><g id="c"><use transform="matrix(0.010416666666666668,0,0,0.010416666666666668,0,0)" xlink:href="#R"/><use transform="matrix(0.010416666666666668,0,0,0.010416666666666668,14.718750000000002,0)" xlink:href="#L"/><use transform="matrix(0.010416666666666668,0,0,0.010416666666666668,19.885416666666668,0)" xlink:href="#K"/><use transform="matrix(0.010416666666666668,0,0,0.010416666666666668,31.9375,0)" xlink:href="#S"/><use transform="matrix(0.010416666666666668,0,0,0.010416666666666668,49.395833333333336,0)" xlink:href="#T"/></g><path d="M763 24c-353 0-583-224-583-531v-983h190v968c0 214 149 370 393 370 243 0 391-156 391-370v-968h190v983c0 307-230 531-581 531" id="U"/><path d="M370-1490V0H180v-1490h190" id="V"/><path d="M180 0v-1490h270l367 940c28 72 75 218 110 339 35-117 81-264 110-339l362-940h271V0h-187c2-448-5-837 7-1287-157 497-311 829-483 1287H842C666-458 514-784 354-1284c12 438 5 843 7 1284H180" id="W"/><path d="M645 0H180v-1490h484c435 0 692 280 692 742 0 466-257 748-711 748zM370-168h263c363 0 539-218 539-580 0-358-176-574-521-574H370v1154" id="X"/><path d="M338-670V0H158v-1490h180v566c73-149 190-208 336-208 226 0 379 139 379 422V0H872v-695c0-172-96-275-252-275-161 0-282 109-282 300" id="Y"/><path d="M611 442c-248 0-391-105-460-228l146-94c47 65 117 165 314 165 178 0 307-82 307-266v-224h-17C863-141 792-18 576-18c-268 0-472-195-472-546 0-346 197-568 476-568 216 0 288 133 326 193h17v-179h175V29c0 289-215 413-487 413zm-5-620c203 0 314-146 314-390 0-237-108-403-314-403-213 0-319 180-319 403 0 230 109 390 319 390" id="Z"/><g id="d"><use transform="matrix(0.010416666666666668,0,0,0.010416666666666668,0,0)" xlink:href="#U"/><use transform="matrix(0.010416666666666668,0,0,0.010416666666666668,15.875000000000002,0)" xlink:href="#V"/><use transform="matrix(0.010416666666666668,0,0,0.010416666666666668,21.604166666666668,0)" xlink:href="#z"/><use transform="matrix(0.010416666666666668,0,0,0.010416666666666668,32.052083333333336,0)" xlink:href="#W"/><use transform="matrix(0.010416666666666668,0,0,0.010416666666666668,51.32291666666667,0)" xlink:href="#X"/><use transform="matrix(0.010416666666666668,0,0,0.010416666666666668,66.71875,0)" xlink:href="#y"/><use transform="matrix(0.010416666666666668,0,0,0.010416666666666668,82.30208333333334,0)" xlink:href="#Y"/><use transform="matrix(0.010416666666666668,0,0,0.010416666666666668,94.91666666666667,0)" xlink:href="#Z"/><use transform="matrix(0.010416666666666668,0,0,0.010416666666666668,108,0)" xlink:href="#A"/><use transform="matrix(0.010416666666666668,0,0,0.010416666666666668,121.625,0)" xlink:href="#B"/><use transform="matrix(0.010416666666666668,0,0,0.010416666666666668,129.30208333333334,0)" xlink:href="#C"/><use transform="matrix(0.010416666666666668,0,0,0.010416666666666668,142.09375,0)" xlink:href="#F"/><use transform="matrix(0.010416666666666668,0,0,0.010416666666666668,154.28125,0)" xlink:href="#A"/><use transform="matrix(0.010416666666666668,0,0,0.010416666666666668,167.90625,0)" xlink:href="#B"/><use transform="matrix(0.010416666666666668,0,0,0.010416666666666668,175.58333333333334,0)" xlink:href="#C"/><use transform="matrix(0.010416666666666668,0,0,0.010416666666666668,188.37499999999997,0)" xlink:href="#D"/><use transform="matrix(0.010416666666666668,0,0,0.010416666666666668,201.43749999999997,0)" xlink:href="#X"/><use transform="matrix(0.010416666666666668,0,0,0.010416666666666668,216.83333333333337,0)" xlink:href="#K"/><use transform="matrix(0.010416666666666668,0,0,0.010416666666666668,229.27083333333337,0)" xlink:href="#G"/><use transform="matrix(0.010416666666666668,0,0,0.010416666666666668,236.04166666666666,0)" xlink:href="#O"/><use transform="matrix(0.010416666666666668,0,0,0.010416666666666668,245.72916666666666,0)" xlink:href="#H"/><use transform="matrix(0.010416666666666668,0,0,0.010416666666666668,259.5,0)" xlink:href="#A"/></g><path d="M657 26c-323 0-524-166-541-416h195c15 169 171 246 346 246 202 0 356-106 356-265 5-203-294-238-475-293-239-73-380-191-380-389 0-252 224-419 512-419 294 0 499 171 508 396H992c-17-145-151-228-328-228-193 0-321 102-321 242 0 156 175 211 284 241l149 41c160 44 422 134 422 412 0 244-197 432-541 432" id="aa"/><path d="M481 0L54-1118h197c107 314 236 620 325 951 87-331 217-637 324-951h197L670 0H481" id="ab"/><g id="e"><use transform="matrix(0.010416666666666668,0,0,0.010416666666666668,0,0)" xlink:href="#I"/><use transform="matrix(0.010416666666666668,0,0,0.010416666666666668,7.781250000000001,0)" xlink:href="#aa"/><use transform="matrix(0.010416666666666668,0,0,0.010416666666666668,21.468750000000004,0)" xlink:href="#K"/><use transform="matrix(0.010416666666666668,0,0,0.010416666666666668,33.90625000000001,0)" xlink:href="#B"/><use transform="matrix(0.010416666666666668,0,0,0.010416666666666668,42.27083333333334,0)" xlink:href="#ab"/><use transform="matrix(0.010416666666666668,0,0,0.010416666666666668,54.260416666666686,0)" xlink:href="#L"/><use transform="matrix(0.010416666666666668,0,0,0.010416666666666668,59.42708333333334,0)" xlink:href="#F"/><use transform="matrix(0.010416666666666668,0,0,0.010416666666666668,71.61458333333334,0)" xlink:href="#K"/></g><path d="M678-1118v154H420V0H240v-964H20v-154h220v-149c0-194 155-293 318-293 85 0 141 18 168 30l-50 154c-19-6-47-17-97-17-111 0-159 58-159 166v109h258" id="ac"/><g id="f"><use transform="matrix(0.010416666666666668,0,0,0.010416666666666668,0,0)" xlink:href="#X"/><use transform="matrix(0.010416666666666668,0,0,0.010416666666666668,15.395833333333336,0)" xlink:href="#K"/><use transform="matrix(0.010416666666666668,0,0,0.010416666666666668,27.833333333333336,0)" xlink:href="#ac"/><use transform="matrix(0.010416666666666668,0,0,0.010416666666666668,35.72916666666667,0)" xlink:href="#L"/><use transform="matrix(0.010416666666666668,0,0,0.010416666666666668,40.895833333333336,0)" xlink:href="#M"/><use transform="matrix(0.010416666666666668,0,0,0.010416666666666668,53.5,0)" xlink:href="#L"/><use transform="matrix(0.010416666666666668,0,0,0.010416666666666668,58.666666666666664,0)" xlink:href="#G"/><use transform="matrix(0.010416666666666668,0,0,0.010416666666666668,65.64583333333333,0)" xlink:href="#L"/><use transform="matrix(0.010416666666666668,0,0,0.010416666666666668,70.8125,0)" xlink:href="#C"/><use transform="matrix(0.010416666666666668,0,0,0.010416666666666668,83.60416666666667,0)" xlink:href="#M"/><use transform="matrix(0.010416666666666668,0,0,0.010416666666666668,96.20833333333334,0)" xlink:href="#T"/></g><g id="g"><use transform="matrix(0.010416666666666668,0,0,0.010416666666666668,0,0)" xlink:href="#V"/><use transform="matrix(0.010416666666666668,0,0,0.010416666666666668,5.729166666666667,0)" xlink:href="#z"/><use transform="matrix(0.010416666666666668,0,0,0.010416666666666668,16.177083333333336,0)" xlink:href="#A"/><use transform="matrix(0.010416666666666668,0,0,0.010416666666666668,29.802083333333336,0)" xlink:href="#B"/><use transform="matrix(0.010416666666666668,0,0,0.010416666666666668,37.47916666666667,0)" xlink:href="#C"/><use transform="matrix(0.010416666666666668,0,0,0.010416666666666668,50.270833333333336,0)" xlink:href="#D"/><use transform="matrix(0.010416666666666668,0,0,0.010416666666666668,63.33333333333334,0)" xlink:href="#E"/><use transform="matrix(0.010416666666666668,0,0,0.010416666666666668,75.94791666666667,0)" xlink:href="#F"/><use transform="matrix(0.010416666666666668,0,0,0.010416666666666668,88.13541666666667,0)" xlink:href="#G"/><use transform="matrix(0.010416666666666668,0,0,0.010416666666666668,95.11458333333334,0)" xlink:href="#A"/><use transform="matrix(0.010416666666666668,0,0,0.010416666666666668,108.73958333333334,0)" xlink:href="#B"/><use transform="matrix(0.010416666666666668,0,0,0.010416666666666668,116.41666666666669,0)" xlink:href="#C"/><use transform="matrix(0.010416666666666668,0,0,0.010416666666666668,129.20833333333334,0)" xlink:href="#F"/><use transform="matrix(0.010416666666666668,0,0,0.010416666666666668,139.72916666666669,0)" xlink:href="#H"/><use transform="matrix(0.010416666666666668,0,0,0.010416666666666668,153.50000000000003,0)" xlink:href="#A"/></g><path d="M471 26C259 26 90-98 90-318c0-256 228-303 435-329 202-27 287-16 287-108 0-139-79-219-234-219-161 0-248 86-283 164l-173-57c86-203 278-265 451-265 150 0 419 46 419 395V0H815v-152h-12C765-73 660 26 471 26zm31-159c199 0 310-134 310-271v-155c-30 35-226 55-295 64-131 17-246 59-246 186 0 116 97 176 231 176" id="ad"/><g id="h"><use transform="matrix(0.010416666666666668,0,0,0.010416666666666668,0,0)" xlink:href="#I"/><use transform="matrix(0.010416666666666668,0,0,0.010416666666666668,7.781250000000001,0)" xlink:href="#V"/><use transform="matrix(0.010416666666666668,0,0,0.010416666666666668,13.510416666666668,0)" xlink:href="#M"/><use transform="matrix(0.010416666666666668,0,0,0.010416666666666668,26.114583333333336,0)" xlink:href="#G"/><use transform="matrix(0.010416666666666668,0,0,0.010416666666666668,32.88541666666667,0)" xlink:href="#K"/><use transform="matrix(0.010416666666666668,0,0,0.010416666666666668,45.32291666666667,0)" xlink:href="#B"/><use transform="matrix(0.010416666666666668,0,0,0.010416666666666668,53.68750000000001,0)" xlink:href="#ac"/><use transform="matrix(0.010416666666666668,0,0,0.010416666666666668,61.25000000000001,0)" xlink:href="#ad"/><use transform="matrix(0.010416666666666668,0,0,0.010416666666666668,73.22916666666667,0)" xlink:href="#F"/><use transform="matrix(0.010416666666666668,0,0,0.010416666666666668,85.41666666666667,0)" xlink:href="#K"/></g><path d="M338-1490V0H158v-1490h180" id="ae"/><g id="i"><use transform="matrix(0.010416666666666668,0,0,0.010416666666666668,0,0)" xlink:href="#y"/><use transform="matrix(0.010416666666666668,0,0,0.010416666666666668,14.739583333333336,0)" xlink:href="#z"/><use transform="matrix(0.010416666666666668,0,0,0.010416666666666668,25.187500000000004,0)" xlink:href="#W"/><use transform="matrix(0.010416666666666668,0,0,0.010416666666666668,44.458333333333336,0)" xlink:href="#X"/><use transform="matrix(0.010416666666666668,0,0,0.010416666666666668,59.854166666666686,0)" xlink:href="#y"/><use transform="matrix(0.010416666666666668,0,0,0.010416666666666668,75.43750000000001,0)" xlink:href="#Y"/><use transform="matrix(0.010416666666666668,0,0,0.010416666666666668,88.05208333333334,0)" xlink:href="#Z"/><use transform="matrix(0.010416666666666668,0,0,0.010416666666666668,101.13541666666667,0)" xlink:href="#A"/><use transform="matrix(0.010416666666666668,0,0,0.010416666666666668,114.76041666666669,0)" xlink:href="#B"/><use transform="matrix(0.010416666666666668,0,0,0.010416666666666668,122.4375,0)" xlink:href="#C"/><use transform="matrix(0.010416666666666668,0,0,0.010416666666666668,135.22916666666666,0)" xlink:href="#F"/><use transform="matrix(0.010416666666666668,0,0,0.010416666666666668,147.41666666666666,0)" xlink:href="#A"/><use transform="matrix(0.010416666666666668,0,0,0.010416666666666668,161.04166666666666,0)" xlink:href="#B"/><use transform="matrix(0.010416666666666668,0,0,0.010416666666666668,168.71875,0)" xlink:href="#C"/><use transform="matrix(0.010416666666666668,0,0,0.010416666666666668,181.51041666666666,0)" xlink:href="#D"/><use transform="matrix(0.010416666666666668,0,0,0.010416666666666668,194.57291666666666,0)" xlink:href="#X"/><use transform="matrix(0.010416666666666668,0,0,0.010416666666666668,209.96874999999997,0)" xlink:href="#K"/><use transform="matrix(0.010416666666666668,0,0,0.010416666666666668,222.40625,0)" xlink:href="#G"/><use transform="matrix(0.010416666666666668,0,0,0.010416666666666668,229.48958333333331,0)" xlink:href="#ad"/><use transform="matrix(0.010416666666666668,0,0,0.010416666666666668,241.46875,0)" xlink:href="#L"/><use transform="matrix(0.010416666666666668,0,0,0.010416666666666668,246.63541666666663,0)" xlink:href="#ae"/><use transform="matrix(0.010416666666666668,0,0,0.010416666666666668,251.8020833333333,0)" xlink:href="#O"/><use transform="matrix(0.010416666666666668,0,0,0.010416666666666668,261.4895833333333,0)" xlink:href="#H"/><use transform="matrix(0.010416666666666668,0,0,0.010416666666666668,275.26041666666663,0)" xlink:href="#A"/></g><path d="M180 0v-1490h528c311 0 458 177 458 395 0 191-114 278-244 313v14c139 9 302 137 302 371 0 225-148 397-499 397H180zm190-168h350c232 0 321-102 321-231 0-149-120-277-311-277H370v508zm0-668h328c160 0 286-101 286-255 0-129-87-231-280-231H370v486" id="af"/><g id="j"><use transform="matrix(0.010416666666666668,0,0,0.010416666666666668,0,0)" xlink:href="#I"/><use transform="matrix(0.010416666666666668,0,0,0.010416666666666668,7.781250000000001,0)" xlink:href="#af"/><use transform="matrix(0.010416666666666668,0,0,0.010416666666666668,21.739583333333336,0)" xlink:href="#K"/><use transform="matrix(0.010416666666666668,0,0,0.010416666666666668,34.177083333333336,0)" xlink:href="#Y"/><use transform="matrix(0.010416666666666668,0,0,0.010416666666666668,46.79166666666667,0)" xlink:href="#ad"/><use transform="matrix(0.010416666666666668,0,0,0.010416666666666668,58.45833333333334,0)" xlink:href="#ab"/><use transform="matrix(0.010416666666666668,0,0,0.010416666666666668,70.44791666666667,0)" xlink:href="#L"/><use transform="matrix(0.010416666666666668,0,0,0.010416666666666668,75.61458333333334,0)" xlink:href="#C"/><use transform="matrix(0.010416666666666668,0,0,0.010416666666666668,88.40625000000001,0)" xlink:href="#E"/><use transform="matrix(0.010416666666666668,0,0,0.010416666666666668,101.02083333333334,0)" xlink:href="#B"/></g><g id="l"><use transform="matrix(0.010416666666666668,0,0,0.010416666666666668,0,0)" xlink:href="#I"/><use transform="matrix(0.010416666666666668,0,0,0.010416666666666668,7.781250000000001,0)" xlink:href="#af"/><use transform="matrix(0.010416666666666668,0,0,0.010416666666666668,21.739583333333336,0)" xlink:href="#K"/><use transform="matrix(0.010416666666666668,0,0,0.010416666666666668,34.177083333333336,0)" xlink:href="#Y"/><use transform="matrix(0.010416666666666668,0,0,0.010416666666666668,46.79166666666667,0)" xlink:href="#ad"/><use transform="matrix(0.010416666666666668,0,0,0.010416666666666668,58.45833333333334,0)" xlink:href="#ab"/><use transform="matrix(0.010416666666666668,0,0,0.010416666666666668,70.44791666666667,0)" xlink:href="#L"/><use transform="matrix(0.010416666666666668,0,0,0.010416666666666668,75.61458333333334,0)" xlink:href="#C"/><use transform="matrix(0.010416666666666668,0,0,0.010416666666666668,88.40625000000001,0)" xlink:href="#E"/><use transform="matrix(0.010416666666666668,0,0,0.010416666666666668,101.02083333333334,0)" xlink:href="#B"/></g><path d="M1296-950c0 302-198 475-514 475H432V0H137v-1409h633c324 1 526 146 526 459zm-297 4c-2-151-101-214-262-213H432v436h313c158 2 252-75 254-223" id="ag"/><path d="M645-858c-160 6-221 145-221 328V0H143c-4-360 8-734-8-1081h268c6 22 14 159 13 188h4c53-121 92-208 256-211 31 0 72 7 90 17l-8 243c-37-7-83-15-113-14" id="ah"/><path d="M621 20C276 20 80-202 80-543s197-559 547-559c358 0 544 210 544 559 0 345-199 563-550 563zm-3-223c183 0 261-142 259-340 1-194-68-336-246-336-181 0-257 141-256 336 3 188 67 340 243 340" id="ai"/><path d="M614 20C267 15 80-189 80-535c0-356 191-561 543-567 185 0 324 76 417 228L844-741c-55-76-103-138-221-138-178 0-249 140-248 332-2 198 71 342 250 342 133 0 184-66 262-141l168 162C959-66 819 20 614 20" id="aj"/><path d="M606 20C262 18 76-184 80-543c2-346 179-559 510-559 359 0 510 263 473 635H375c1 166 76 276 246 274 145-4 205-54 301-118l114 182C912-40 811 20 606 20zm191-679c-4-150-65-238-209-238-138 0-209 91-211 238h420" id="ak"/><path d="M954-315C949-74 761 20 508 20 299 20 173-36 49-135l127-193c105 75 179 138 332 138 101 0 184-12 188-103 0-62-44-88-92-105-99-30-269-62-350-106-94-47-166-128-164-270 6-234 178-325 422-328 182 1 322 58 414 156L782-780c-77-75-166-113-268-113-111 0-166 32-166 96 0 54 36 76 78 92 242 71 534 83 528 390" id="al"/><g id="m"><use transform="matrix(0.010850694444444444,0,0,0.010850694444444444,0,0)" xlink:href="#ag"/><use transform="matrix(0.010850694444444444,0,0,0.010850694444444444,14.82204861111111,0)" xlink:href="#ah"/><use transform="matrix(0.010850694444444444,0,0,0.010850694444444444,23.253038194444443,0)" xlink:href="#ai"/><use transform="matrix(0.010850694444444444,0,0,0.010850694444444444,36.82725694444444,0)" xlink:href="#aj"/><use transform="matrix(0.010850694444444444,0,0,0.010850694444444444,48.51345486111111,0)" xlink:href="#ak"/><use transform="matrix(0.010850694444444444,0,0,0.010850694444444444,60.87239583333333,0)" xlink:href="#al"/><use transform="matrix(0.010850694444444444,0,0,0.010850694444444444,71.91840277777777,0)" xlink:href="#al"/></g><path d="M1294-401c0 295-243 401-544 401H137v-1409h594c169 0 299 30 388 89s134 147 134 265c-3 180-107 281-268 314 187 24 309 137 309 340zm-338-615c0-132-95-162-239-162H432v328h266c154-1 258-33 258-166zm41 590c0-247-328-177-565-188v381c240-11 565 60 565-193" id="am"/><path d="M483 20c-250 3-356-168-356-415v-686h281v606c2 149 38 254 182 254 154 0 237-121 237-281v-579h281c4 359-9 735 8 1081H848c-4-31-13-158-12-195h-5C765-62 665 17 483 20" id="an"/><path d="M285-1225c-97 1-159-61-158-157-1-97 61-159 158-158 94-1 157 63 155 158 2 93-63 159-155 157zm-142 144h281V0H143v-1081" id="ao"/><path d="M662-862c-155 0-238 122-238 282V0H143c-4-359 9-735-8-1081h268c6 29 14 157 13 194h4c68-132 166-213 348-217 251-3 356 170 356 418V0H844v-606c-2-150-37-256-182-256" id="ap"/><g id="n"><use transform="matrix(0.010850694444444444,0,0,0.010850694444444444,0,0)" xlink:href="#am"/><use transform="matrix(0.010850694444444444,0,0,0.010850694444444444,15.0390625,0)" xlink:href="#an"/><use transform="matrix(0.010850694444444444,0,0,0.010850694444444444,28.61328125,0)" xlink:href="#al"/><use transform="matrix(0.010850694444444444,0,0,0.010850694444444444,39.65928819444444,0)" xlink:href="#ao"/><use transform="matrix(0.010850694444444444,0,0,0.010850694444444444,45.83333333333333,0)" xlink:href="#ap"/><use transform="matrix(0.010850694444444444,0,0,0.010850694444444444,59.40755208333333,0)" xlink:href="#ak"/><use transform="matrix(0.010850694444444444,0,0,0.010850694444444444,71.76649305555554,0)" xlink:href="#al"/><use transform="matrix(0.010850694444444444,0,0,0.010850694444444444,82.81249999999999,0)" xlink:href="#al"/></g><path d="M84-711c0-451 262-719 711-719s707 270 712 719c3 305-140 525-341 640C959 48 615 46 412-74 214-191 84-410 84-711zm709 478c278 0 413-197 413-478 0-276-142-467-411-467-273 0-414 190-414 467 0 276 142 478 412 478" id="aq"/><path d="M750 20c-153-1-271-67-328-174 1 35-6 130-14 154H135c5-63 8-145 8-248v-1237h281c-2 189 4 388-4 570h4c62-118 176-187 344-187 296 0 405 251 410 557 0 221-68 399-196 493-64 48-141 72-232 72zm-91-223c162 0 226-148 226-342 0-187-61-332-223-332-168 0-247 135-242 340 1 193 64 334 239 334" id="ar"/><path d="M285-1225c-97 1-159-61-158-157-1-97 61-159 158-158 94-1 157 63 155 158 2 93-63 159-155 157zM426 129c-1 183-98 301-289 297-71 0-127-4-170-12l21-221c24 3 41 4 51 4 97 2 104-59 104-158v-1120h283V129" id="as"/><path d="M440 18C256 18 162-86 162-274v-598H25v-209h151l14-244 250-21v265h215v209H440v522c1 86 24 133 105 135 29 0 63-4 102-12l21 213C591 7 515 18 440 18" id="at"/><g id="o"><use transform="matrix(0.010850694444444444,0,0,0.010850694444444444,0,0)" xlink:href="#aq"/><use transform="matrix(0.010850694444444444,0,0,0.010850694444444444,17.28515625,0)" xlink:href="#ar"/><use transform="matrix(0.010850694444444444,0,0,0.010850694444444444,30.97873263888889,0)" xlink:href="#as"/><use transform="matrix(0.010850694444444444,0,0,0.010850694444444444,37.15277777777778,0)" xlink:href="#ak"/><use transform="matrix(0.010850694444444444,0,0,0.010850694444444444,49.51171875,0)" xlink:href="#aj"/><use transform="matrix(0.010850694444444444,0,0,0.010850694444444444,61.197916666666664,0)" xlink:href="#at"/></g><path d="M952-381H336L203 0H4l531-1409h225L1280 0h-195zm-58-166c-80-236-168-475-249-710-81 234-171 474-251 710h500" id="au"/><path d="M553-926c-179 4-231 168-231 363V0H141c-3-349 6-747-6-1081h170c3 47 8 132 8 180h4c48-136 158-232 336-191l-14 177c-24-7-53-11-86-11" id="av"/><path d="M596-8C535 7 490 16 416 16c-168 0-252-82-252-245v-701H31v-151h137l8-224 168-18v242h234v151H344v662c2 93 30 119 123 121 37 0 84-9 113-15" id="aw"/><path d="M227-1282c-68 2-123-53-121-121-2-68 53-123 121-121 67-2 121 54 119 121 2 66-53 123-119 121zm-90 201h180V0H137v-1081" id="ax"/><path d="M483-1323c-104 2-120 53-123 162v80h240v151H360V0H180v-930H39v-151h141v-105c1-184 90-302 281-299 52 0 102 6 151 17l-16 155c-45-7-61-10-113-10" id="ay"/><path d="M424 20C212 23 86-96 86-301c-4-254 223-334 471-342l215-4c16-182-55-307-221-303-157 4-213 64-309 162L129-905c89-108 231-199 426-197 244 4 391 134 395 373s-7 504 8 729H784c-5-49-8-102-8-160h-4C692-48 608 19 424 20zm41-151c180-3 298-102 307-272v-103c-227 8-495-14-500 207 0 107 81 170 193 168" id="az"/><path d="M578 20C241 16 86-211 86-543c0-341 172-559 492-559 193 0 285 68 383 176L834-811c-75-81-121-130-259-133-210 1-303 175-301 397s78 409 299 406c145-4 208-64 299-131l97 133C878-58 751 23 578 20" id="aA"/><path d="M881-299C874-76 703 20 473 20 288 20 135-44 41-147l106-129c85 85 176 143 326 147 121-1 233-37 232-156 1-79-43-117-98-143-201-90-517-89-517-373 0-211 164-296 381-299 153 1 292 59 373 139L741-834c-62-60-160-112-270-114-113 0-205 35-207 139 0 72 49 103 103 125 86 33 266 73 345 114 92 45 173 129 169 271" id="aB"/><g id="p"><use transform="matrix(0.010850694444444444,0,0,0.010850694444444444,0,0)" xlink:href="#au"/><use transform="matrix(0.010850694444444444,0,0,0.010850694444444444,13.932291666666666,0)" xlink:href="#av"/><use transform="matrix(0.010850694444444444,0,0,0.010850694444444444,21.33246527777778,0)" xlink:href="#aw"/><use transform="matrix(0.010850694444444444,0,0,0.010850694444444444,28.070746527777775,0)" xlink:href="#ax"/><use transform="matrix(0.010850694444444444,0,0,0.010850694444444444,33.0078125,0)" xlink:href="#ay"/><use transform="matrix(0.010850694444444444,0,0,0.010850694444444444,39.6484375,0)" xlink:href="#az"/><use transform="matrix(0.010850694444444444,0,0,0.010850694444444444,51.51909722222222,0)" xlink:href="#aA"/><use transform="matrix(0.010850694444444444,0,0,0.010850694444444444,62.41319444444444,0)" xlink:href="#aw"/><use transform="matrix(0.010850694444444444,0,0,0.010850694444444444,69.15147569444444,0)" xlink:href="#aB"/></g><path d="M602-942c-181 4-280 119-280 303V0H141v-1485h181c-2 196 6 406-9 588h4c74-132 159-201 347-205 244-8 342 156 342 381V0H825v-686c-4-159-53-259-223-256" id="aC"/><g id="q"><use transform="matrix(0.010850694444444444,0,0,0.010850694444444444,0,0)" xlink:href="#aw"/><use transform="matrix(0.010850694444444444,0,0,0.010850694444444444,6.73828125,0)" xlink:href="#aC"/><use transform="matrix(0.010850694444444444,0,0,0.010850694444444444,19.09722222222222,0)" xlink:href="#az"/><use transform="matrix(0.010850694444444444,0,0,0.010850694444444444,30.967881944444443,0)" xlink:href="#aw"/></g><path d="M582 20C248 20 91-208 86-545c-2-232 87-407 230-493 71-43 152-64 241-64 339 3 477 261 453 608H276c8 198 103 359 306 359 146 0 216-64 299-135l98 129C880-56 766 20 582 20zm247-665c-16-185-88-303-272-303-174 0-269 124-278 303h550" id="aD"/><path d="M854-934c-1-33 4-125 10-147h172c-9 463-2 1028-4 1507H852c2-196-4-398 4-588h-2C785-42 692 20 512 20 205 20 89-217 86-537c-1-229 73-406 208-497 67-45 147-68 238-68 171 0 253 62 322 168zM274-543c1 231 69 399 281 404 84 0 154-31 211-93s86-170 86-323c0-139-26-240-78-301s-121-92-205-92c-219 4-295 169-295 405" id="aE"/><path d="M475 20c-239-1-343-153-342-401v-700h180v665c1 184 53 277 224 277 180 0 280-143 280-330v-612h180c3 360-7 732 7 1081H834c-3-19-10-153-9-178h-4C754-60 654 20 475 20" id="aF"/><g id="r"><use transform="matrix(0.010850694444444444,0,0,0.010850694444444444,0,0)" xlink:href="#av"/><use transform="matrix(0.010850694444444444,0,0,0.010850694444444444,7.183159722222222,0)" xlink:href="#aD"/><use transform="matrix(0.010850694444444444,0,0,0.010850694444444444,19.18402777777778,0)" xlink:href="#aE"/><use transform="matrix(0.010850694444444444,0,0,0.010850694444444444,31.868489583333336,0)" xlink:href="#aF"/><use transform="matrix(0.010850694444444444,0,0,0.010850694444444444,44.22743055555556,0)" xlink:href="#ax"/><use transform="matrix(0.010850694444444444,0,0,0.010850694444444444,49.16449652777778,0)" xlink:href="#av"/><use transform="matrix(0.010850694444444444,0,0,0.010850694444444444,56.34765625,0)" xlink:href="#aD"/></g><path d="M406-555L41-1081h203l266 415 264-415h205L614-557 1001 0H797L510-440 223 0H23" id="aG"/><path d="M602-942c-186 5-280 124-280 315V0H141c-3-361 6-729-6-1081h170c4 34 8 145 8 184h4c72-128 155-204 347-205 233-2 342 149 342 381V0H825v-686c-2-163-60-256-223-256" id="aH"/><path d="M565 20C241 20 86-212 86-543c0-333 155-553 485-559 332-3 482 225 482 559-4 336-156 563-488 563zm-2-153c217 0 303-166 301-410 1-240-77-405-291-405-212 0-302 169-299 405 3 229 77 410 289 410" id="aI"/><g id="s"><use transform="matrix(0.010850694444444444,0,0,0.010850694444444444,0,0)" xlink:href="#aD"/><use transform="matrix(0.010850694444444444,0,0,0.010850694444444444,12.000868055555555,0)" xlink:href="#aG"/><use transform="matrix(0.010850694444444444,0,0,0.010850694444444444,23.111979166666664,0)" xlink:href="#aw"/><use transform="matrix(0.010850694444444444,0,0,0.010850694444444444,29.850260416666664,0)" xlink:href="#aD"/><use transform="matrix(0.010850694444444444,0,0,0.010850694444444444,41.85112847222222,0)" xlink:href="#aH"/><use transform="matrix(0.010850694444444444,0,0,0.010850694444444444,54.21006944444444,0)" xlink:href="#aB"/><use transform="matrix(0.010850694444444444,0,0,0.010850694444444444,64.47482638888889,0)" xlink:href="#ax"/><use transform="matrix(0.010850694444444444,0,0,0.010850694444444444,69.41189236111111,0)" xlink:href="#aI"/><use transform="matrix(0.010850694444444444,0,0,0.010850694444444444,81.77083333333334,0)" xlink:href="#aH"/></g><path d="M789 20c-398 0-667-293-667-764 0-473 273-766 655-766 315 0 558 198 612 487h-196c-61-191-204-311-415-311-262 0-471 207-471 590 0 380 208 588 482 588 249 0 420-165 425-427H828v-166h572v163c0 370-256 606-611 606" id="aJ"/><g id="t"><use transform="matrix(0.010416666666666668,0,0,0.010416666666666668,0,0)" xlink:href="#y"/><use transform="matrix(0.010416666666666668,0,0,0.010416666666666668,14.739583333333336,0)" xlink:href="#z"/><use transform="matrix(0.010416666666666668,0,0,0.010416666666666668,25.187500000000004,0)" xlink:href="#A"/><use transform="matrix(0.010416666666666668,0,0,0.010416666666666668,38.81250000000001,0)" xlink:href="#B"/><use transform="matrix(0.010416666666666668,0,0,0.010416666666666668,46.489583333333336,0)" xlink:href="#C"/><use transform="matrix(0.010416666666666668,0,0,0.010416666666666668,59.281250000000014,0)" xlink:href="#D"/><use transform="matrix(0.010416666666666668,0,0,0.010416666666666668,72.34375000000001,0)" xlink:href="#E"/><use transform="matrix(0.010416666666666668,0,0,0.010416666666666668,84.95833333333334,0)" xlink:href="#F"/><use transform="matrix(0.010416666666666668,0,0,0.010416666666666668,97.14583333333334,0)" xlink:href="#G"/><use transform="matrix(0.010416666666666668,0,0,0.010416666666666668,104.12500000000001,0)" xlink:href="#aJ"/><use transform="matrix(0.010416666666666668,0,0,0.010416666666666668,120.04166666666669,0)" xlink:href="#C"/><use transform="matrix(0.010416666666666668,0,0,0.010416666666666668,132.41666666666669,0)" xlink:href="#ab"/><use transform="matrix(0.010416666666666668,0,0,0.010416666666666668,143.68750000000003,0)" xlink:href="#H"/><use transform="matrix(0.010416666666666668,0,0,0.010416666666666668,157.45833333333337,0)" xlink:href="#A"/></g><path d="M180 0v-1490h510c348 0 508 194 508 460 0 198-88 351-276 417L1256 0h-220L726-579c-117 2-238 0-356 1V0H180zm190-747h312c235 0 327-108 327-283 0-177-92-293-329-293H370v576" id="aK"/><path d="M784 20c-382 0-662-292-662-764 0-473 280-766 662-766s660 293 660 766c0 472-278 764-660 764zm0-176c266 0 475-207 475-588 0-383-209-590-475-590-268 0-477 208-477 590 0 380 209 588 477 588" id="aL"/><g id="u"><use transform="matrix(0.010416666666666668,0,0,0.010416666666666668,0,0)" xlink:href="#U"/><use transform="matrix(0.010416666666666668,0,0,0.010416666666666668,15.875000000000002,0)" xlink:href="#V"/><use transform="matrix(0.010416666666666668,0,0,0.010416666666666668,21.604166666666668,0)" xlink:href="#z"/><use transform="matrix(0.010416666666666668,0,0,0.010416666666666668,32.052083333333336,0)" xlink:href="#A"/><use transform="matrix(0.010416666666666668,0,0,0.010416666666666668,45.677083333333336,0)" xlink:href="#aK"/><use transform="matrix(0.010416666666666668,0,0,0.010416666666666668,59.40625,0)" xlink:href="#aL"/><use transform="matrix(0.010416666666666668,0,0,0.010416666666666668,75.71875,0)" xlink:href="#X"/><use transform="matrix(0.010416666666666668,0,0,0.010416666666666668,91.11458333333334,0)" xlink:href="#U"/><use transform="matrix(0.010416666666666668,0,0,0.010416666666666668,106.98958333333334,0)" xlink:href="#y"/><use transform="matrix(0.010416666666666668,0,0,0.010416666666666668,122.57291666666669,0)" xlink:href="#H"/><use transform="matrix(0.010416666666666668,0,0,0.010416666666666668,135.70833333333334,0)" xlink:href="#aJ"/><use transform="matrix(0.010416666666666668,0,0,0.010416666666666668,151.625,0)" xlink:href="#aL"/><use transform="matrix(0.010416666666666668,0,0,0.010416666666666668,167.21875,0)" xlink:href="#R"/><use transform="matrix(0.010416666666666668,0,0,0.010416666666666668,181.93749999999997,0)" xlink:href="#H"/><use transform="matrix(0.010416666666666668,0,0,0.010416666666666668,195.70833333333334,0)" xlink:href="#A"/></g><g id="v"><use transform="matrix(0.010416666666666668,0,0,0.010416666666666668,0,0)" xlink:href="#V"/><use transform="matrix(0.010416666666666668,0,0,0.010416666666666668,5.729166666666667,0)" xlink:href="#z"/><use transform="matrix(0.010416666666666668,0,0,0.010416666666666668,16.177083333333336,0)" xlink:href="#A"/><use transform="matrix(0.010416666666666668,0,0,0.010416666666666668,29.802083333333336,0)" xlink:href="#B"/><use transform="matrix(0.010416666666666668,0,0,0.010416666666666668,37.47916666666667,0)" xlink:href="#C"/><use transform="matrix(0.010416666666666668,0,0,0.010416666666666668,50.270833333333336,0)" xlink:href="#D"/><use transform="matrix(0.010416666666666668,0,0,0.010416666666666668,63.33333333333334,0)" xlink:href="#E"/><use transform="matrix(0.010416666666666668,0,0,0.010416666666666668,75.94791666666667,0)" xlink:href="#F"/><use transform="matrix(0.010416666666666668,0,0,0.010416666666666668,88.13541666666667,0)" xlink:href="#G"/><use transform="matrix(0.010416666666666668,0,0,0.010416666666666668,95.11458333333334,0)" xlink:href="#aJ"/><use transform="matrix(0.010416666666666668,0,0,0.010416666666666668,111.03125000000001,0)" xlink:href="#C"/><use transform="matrix(0.010416666666666668,0,0,0.010416666666666668,123.40625000000001,0)" xlink:href="#ab"/><use transform="matrix(0.010416666666666668,0,0,0.010416666666666668,134.67708333333334,0)" xlink:href="#H"/><use transform="matrix(0.010416666666666668,0,0,0.010416666666666668,148.44791666666669,0)" xlink:href="#A"/></g><g id="w"><use transform="matrix(0.010416666666666668,0,0,0.010416666666666668,0,0)" xlink:href="#I"/><use transform="matrix(0.010416666666666668,0,0,0.010416666666666668,7.781250000000001,0)" xlink:href="#af"/><use transform="matrix(0.010416666666666668,0,0,0.010416666666666668,21.739583333333336,0)" xlink:href="#K"/><use transform="matrix(0.010416666666666668,0,0,0.010416666666666668,34.177083333333336,0)" xlink:href="#Y"/><use transform="matrix(0.010416666666666668,0,0,0.010416666666666668,46.79166666666667,0)" xlink:href="#ad"/><use transform="matrix(0.010416666666666668,0,0,0.010416666666666668,58.45833333333334,0)" xlink:href="#ab"/><use transform="matrix(0.010416666666666668,0,0,0.010416666666666668,70.44791666666667,0)" xlink:href="#L"/><use transform="matrix(0.010416666666666668,0,0,0.010416666666666668,75.61458333333334,0)" xlink:href="#C"/><use transform="matrix(0.010416666666666668,0,0,0.010416666666666668,88.40625000000001,0)" xlink:href="#E"/><use transform="matrix(0.010416666666666668,0,0,0.010416666666666668,101.02083333333334,0)" xlink:href="#B"/><use transform="matrix(0.010416666666666668,0,0,0.010416666666666668,109.05208333333334,0)" xlink:href="#T"/></g><path d="M381-711c0 279 132 472 405 480 149 0 279-52 346-135 38-46 56-95 54-158H852v-240h604V0h-246v-184C1128-56 966 23 758 20 320 14 84-272 84-711c0-456 259-713 717-719 279 0 484 112 596 285l-221 166c-70-107-203-200-375-199-277 6-420 186-420 467" id="aM"/><path d="M8-1081h297c85 279 184 570 260 854 81-292 182-569 271-854h294L731 0H395" id="aN"/><path d="M401 20C193 17 70-97 66-305c-2-250 181-340 428-346l233-4c13-153-41-232-178-230-95 0-192 44-291 131L125-930c129-115 276-172 440-172 267-2 443 128 443 387 0 231-4 502 8 715H750c-5-47-7-98-7-152h-6C671-49 563 20 401 20zm88-213c158 0 250-112 238-288-168 10-369-30-369 153-1 85 49 135 131 135" id="aO"/><g id="x"><use transform="matrix(0.010850694444444444,0,0,0.010850694444444444,0,0)" xlink:href="#aM"/><use transform="matrix(0.010850694444444444,0,0,0.010850694444444444,17.176649305555554,0)" xlink:href="#ai"/><use transform="matrix(0.010850694444444444,0,0,0.010850694444444444,30.64236111111111,0)" xlink:href="#aN"/><use transform="matrix(0.010850694444444444,0,0,0.010850694444444444,43.00130208333333,0)" xlink:href="#ak"/><use transform="matrix(0.010850694444444444,0,0,0.010850694444444444,55.36024305555556,0)" xlink:href="#ah"/><use transform="matrix(0.010850694444444444,0,0,0.010850694444444444,64.00824652777777,0)" xlink:href="#ap"/><use transform="matrix(0.010850694444444444,0,0,0.010850694444444444,77.58246527777777,0)" xlink:href="#aO"/><use transform="matrix(0.010850694444444444,0,0,0.010850694444444444,89.94140625,0)" xlink:href="#ap"/><use transform="matrix(0.010850694444444444,0,0,0.010850694444444444,103.515625,0)" xlink:href="#aj"/><use transform="matrix(0.010850694444444444,0,0,0.010850694444444444,115.20182291666666,0)" xlink:href="#ak"/></g></defs></g></svg>