<svg xmlns="http://www.w3.org/2000/svg" xmlns:xlink="http://www.w3.org/1999/xlink" xmlns:lucid="lucid" width="2278.87" height="654.35"><g transform="translate(432.76770453887747 -615.4895040807719)" lucid:page-tab-id="C1OEUhiQm6ql"><path d="M-500 500h2500v1000H-500z" fill="#fff"/><path d="M-431.27 633a16 16 0 0 1 16-16H1828.6a16 16 0 0 1 16 16v619.34a16 16 0 0 1-16 16H-415.27a16 16 0 0 1-16-16z" stroke="#07838f" stroke-width="3" fill="#fff"/><path d="M-354.08 906.18a16 16 0 0 1 16-16h522.16a16 16 0 0 1 16 16v195.4a16 16 0 0 1-16 16h-522.16a16 16 0 0 1-16-16z" stroke="#0070f2" stroke-width="3" fill="#fff"/><path d="M285.56 732.24a16 16 0 0 1 16-16h394.1a16 16 0 0 1 16 16v301.14a16 16 0 0 1-16 16h-394.1a16 16 0 0 1-16-16z" stroke="#5d36ff" stroke-width="3" fill="#f1ecff"/><path d="M750.62 717.93a16 16 0 0 1 16-16h949.7a16 16 0 0 1 16 16v315.45a16 16 0 0 1-16 16h-949.7a16 16 0 0 1-16-16z" stroke="#cc00dc" stroke-width="3" fill="#fff0fa"/><path d="M-329.04 1136.84a6 6 0 0 1 6-6H177.4a6 6 0 0 1 6 6v45.6a6 6 0 0 1-6 6h-500.44a6 6 0 0 1-6-6z" stroke="#000" stroke-width="2" fill="#6db1ff"/><use xlink:href="#a" transform="matrix(1,0,0,1,-317.0443030815294,1142.841605343447) translate(133.962890625 23.625)"/><use xlink:href="#b" transform="matrix(1,0,0,1,-317.0443030815294,1142.841605343447) translate(215.75 23.625)"/><path d="M-333.22 1064.13a6 6 0 0 1 6-6h500.44a6 6 0 0 1 6 6v41a6 6 0 0 1-6 6h-500.44a6 6 0 0 1-6-6z" stroke="#000" stroke-width="2" fill="#00c2a8"/><use xlink:href="#c" transform="matrix(1,0,0,1,-321.2235097959966,1070.1254726206362) translate(142.6494140625 21.1875)"/><use xlink:href="#d" transform="matrix(1,0,0,1,-321.2235097959966,1070.1254726206362) translate(199.4169921875 21.1875)"/><use xlink:href="#e" transform="matrix(1,0,0,1,-321.2235097959966,1070.1254726206362) translate(289.4853515625 21.1875)"/><path d="M-333.22 987.3a6 6 0 0 1 6-6h500.44a6 6 0 0 1 6 6v40.76a6 6 0 0 1-6 6h-500.44a6 6 0 0 1-6-6z" stroke="#000" stroke-width="2" fill="#54c45e"/><use xlink:href="#f" transform="matrix(1,0,0,1,-321.2235097959966,993.3024537411752) translate(162.37109375 21.1875)"/><use xlink:href="#e" transform="matrix(1,0,0,1,-321.2235097959966,993.3024537411752) translate(269.763671875 21.1875)"/><path d="M-329.04 914.2a6 6 0 0 1 6-6H177.4a6 6 0 0 1 6 6v34.04a6 6 0 0 1-6 6h-500.44a6 6 0 0 1-6-6z" stroke="#000" stroke-width="2" fill="#cbc2a3"/><use xlink:href="#g" transform="matrix(1,0,0,1,-317.0443030815294,920.1981135513834) translate(94.48046875 20.8125)"/><use xlink:href="#h" transform="matrix(1,0,0,1,-317.0443030815294,920.1981135513834) translate(226.94140625 20.8125)"/><use xlink:href="#e" transform="matrix(1,0,0,1,-317.0443030815294,920.1981135513834) translate(337.654296875 20.8125)"/><path d="M-333.22 823a6 6 0 0 1 6-6h500.44a6 6 0 0 1 6 6v38.34a6 6 0 0 1-6 6h-500.44a6 6 0 0 1-6-6z" stroke="#000" stroke-width="2" fill="#fc9432"/><use xlink:href="#i" transform="matrix(1,0,0,1,-321.2235097959966,828.9895040807719) translate(99.2265625 21.0625)"/><use xlink:href="#e" transform="matrix(1,0,0,1,-321.2235097959966,828.9895040807719) translate(332.908203125 21.0625)"/><path d="M-400.4 1097.02a6 6 0 0 1-6-6V901.35a6 6 0 0 1 6-6h40.32a6 6 0 0 1 6 6v189.67a6 6 0 0 1-6 6z" fill="none"/><use xlink:href="#j" transform="matrix(6.123233995736766e-17,-1,1,6.123233995736766e-17,-401.40289687304664,1092.0198831583225) translate(0 28.775390625)"/><use xlink:href="#k" transform="matrix(6.123233995736766e-17,-1,1,6.123233995736766e-17,-401.40289687304664,1092.0198831583225) translate(70.25390625 28.775390625)"/><use xlink:href="#l" transform="matrix(6.123233995736766e-17,-1,1,6.123233995736766e-17,-401.40289687304664,1092.0198831583225) translate(126.77734375 28.775390625)"/><path d="M291.74 1135.74a6 6 0 0 1 6-6h1441.33a6 6 0 0 1 6 6v45.6a6 6 0 0 1-6 6H297.73a6 6 0 0 1-6-6z" stroke="#000" stroke-width="2" fill="#6db1ff"/><use xlink:href="#m" transform="matrix(1,0,0,1,303.7350571066744,1141.7368981574377) translate(646.728515625 23.625)"/><path d="M291.74 1064.13a6 6 0 0 1 6-6h837.32a6 6 0 0 1 6 6v41a6 6 0 0 1-6 6H297.74a6 6 0 0 1-6-6z" stroke="#000" stroke-width="2" fill="#00c2a8"/><use xlink:href="#n" transform="matrix(1,0,0,1,303.73505710669633,1070.1254726206362) translate(229.591796875 21.1875)"/><path d="M291.74 987.3a6 6 0 0 1 6-6h394a6 6 0 0 1 6 6v40.76a6 6 0 0 1-6 6h-394a6 6 0 0 1-6-6z" stroke="#000" stroke-width="2" fill="#54c45e"/><use xlink:href="#o" transform="matrix(1,0,0,1,303.73505710667433,993.3024537411748) translate(14.478515625 21.1875)"/><path d="M757.52 910.84a6 6 0 0 1 6-6h432.18a6 6 0 0 1 6 6v40.76a6 6 0 0 1-6 6H763.52a6 6 0 0 1-6-6z" stroke="#000" stroke-width="2" fill="#cbc2a3"/><use xlink:href="#p" transform="matrix(1,0,0,1,769.5171066591042,916.8410172411309) translate(18.8935546875 21.1875)"/><path d="M1227.55 987.3a6 6 0 0 1 6-6h432.2a6 6 0 0 1 6 6v40.76a6 6 0 0 1-6 6h-432.2a6 6 0 0 1-6-6z" stroke="#000" stroke-width="2" fill="#54c45e"/><use xlink:href="#q" transform="matrix(1,0,0,1,1239.5503993684797,993.3024537411748) translate(18.1220703125 21.1875)"/><path d="M291.74 914.24a6 6 0 0 1 6-6h394a6 6 0 0 1 6 6v34.04a6 6 0 0 1-6 6h-394a6 6 0 0 1-6-6z" stroke="#000" stroke-width="2" fill="#cbc2a3"/><use xlink:href="#r" transform="matrix(1,0,0,1,303.73505710667433,920.2412027612809) translate(1.63671875 20.8125)"/><path d="M291.74 823a6 6 0 0 1 6-6h394a6 6 0 0 1 6 6v38.34a6 6 0 0 1-6 6h-394a6 6 0 0 1-6-6z" stroke="#000" stroke-width="2" fill="#fc9432"/><use xlink:href="#s" transform="matrix(1,0,0,1,303.7350571066743,828.9895040807719) translate(0 20.775390625)"/><path d="M757.52 823a6 6 0 0 1 6-6h432.18a6 6 0 0 1 6 6v38.34a6 6 0 0 1-6 6H763.52a6 6 0 0 1-6-6z" stroke="#000" stroke-width="2" fill="#fc9432"/><use xlink:href="#t" transform="matrix(1,0,0,1,769.5171066590954,828.9895040808046) translate(0 21.0625)"/><path d="M1227.55 823a6 6 0 0 1 6-6h432.2a6 6 0 0 1 6 6v38.34a6 6 0 0 1-6 6h-432.2a6 6 0 0 1-6-6z" stroke="#000" stroke-width="2" fill="#fc9432"/><use xlink:href="#u" transform="matrix(1,0,0,1,1239.5503993684797,828.9895040808046) translate(0 21.0625)"/><path d="M-333.22 738a6 6 0 0 1 6-6h500.44a6 6 0 0 1 6 6v38.36a6 6 0 0 1-6 6h-500.44a6 6 0 0 1-6-6z" stroke="#000" stroke-width="2" fill="#fe7070"/><use xlink:href="#v" transform="matrix(1,0,0,1,-321.2235097959966,744.01230088489) translate(145.7548828125 21.0625)"/><use xlink:href="#w" transform="matrix(1,0,0,1,-321.2235097959966,744.01230088489) translate(240.3251953125 21.0625)"/><path d="M291.74 738a6 6 0 0 1 6-6h394a6 6 0 0 1 6 6v38.36a6 6 0 0 1-6 6h-394a6 6 0 0 1-6-6z" stroke="#000" stroke-width="2" fill="#fe7070"/><g><use xlink:href="#s" transform="matrix(1,0,0,1,303.7350571066744,744.01230088489) translate(-2.25 20.775390625)"/></g><path d="M757.52 738a6 6 0 0 1 6-6h432.18a6 6 0 0 1 6 6v38.36a6 6 0 0 1-6 6H763.52a6 6 0 0 1-6-6z" stroke="#000" stroke-width="2" fill="#fe7070"/><g><use xlink:href="#t" transform="matrix(1,0,0,1,769.5171066591042,744.01230088489) translate(15.0068359375 21.0625)"/></g><path d="M315.44 671.03a6 6 0 0 1 6-6h334.23a6 6 0 0 1 6 6v24.9a6 6 0 0 1-6 6H321.44a6 6 0 0 1-6-6z" fill="none"/><g><use xlink:href="#x" transform="matrix(1,0,0,1,320.4400252653653,670.0305502479555) translate(0 21.58376736111111)"/><use xlink:href="#y" transform="matrix(1,0,0,1,320.4400252653653,670.0305502479555) translate(133.83246527777777 21.58376736111111)"/><use xlink:href="#z" transform="matrix(1,0,0,1,320.4400252653653,670.0305502479555) translate(171.61458333333331 21.58376736111111)"/><use xlink:href="#A" transform="matrix(1,0,0,1,320.4400252653653,670.0305502479555) translate(234.49435763888886 21.58376736111111)"/></g><path d="M990.84 671.03a6 6 0 0 1 6-6h291.27a6 6 0 0 1 6 6v24.9a6 6 0 0 1-6 6H996.85a6 6 0 0 1-6-6z" fill="none"/><g><use xlink:href="#B" transform="matrix(1,0,0,1,995.8364890649353,670.0305502479464) translate(0 21.58376736111111)"/><use xlink:href="#y" transform="matrix(1,0,0,1,995.8364890649353,670.0305502479464) translate(90.87456597222221 21.58376736111111)"/><use xlink:href="#z" transform="matrix(1,0,0,1,995.8364890649353,670.0305502479464) translate(128.65668402777777 21.58376736111111)"/><use xlink:href="#A" transform="matrix(1,0,0,1,995.8364890649353,670.0305502479464) translate(191.53645833333331 21.58376736111111)"/></g><path d="M1227.55 1064.13a6 6 0 0 1 6-6h440.25a6 6 0 0 1 6 6v41a6 6 0 0 1-6 6h-440.25a6 6 0 0 1-6-6z" stroke="#000" stroke-width="2" fill="#00c2a8"/><g><use xlink:href="#C" transform="matrix(1,0,0,1,1239.5503993684797,1070.1254726206362) translate(32.2783203125 21.1875)"/></g><defs><path d="M180 0v-1490h510c348 0 508 209 508 474 0 266-160 477-507 477H370V0H180zm190-706h312c236 0 327-133 327-310 0-176-91-307-329-307H370v617" id="D"/><path d="M158 0v-1118h174v172h12c41-113 157-188 290-188 26 0 70 2 91 3v181c-11-2-60-10-108-10-161 0-279 109-279 260V0H158" id="E"/><path d="M613 24c-304 0-509-231-509-576 0-350 205-580 509-580 305 0 511 230 511 580 0 345-206 576-511 576zm0-161c226 0 329-195 329-415 0-222-103-419-329-419-223 0-326 196-326 419 0 220 103 415 326 415" id="F"/><path d="M613 24c-304 0-509-231-509-576 0-350 205-580 509-580 216 0 392 114 453 309l-173 49c-33-115-133-197-280-197-223 0-326 196-326 419 0 220 103 415 326 415 150 0 252-85 285-206l172 49C1010-95 832 24 613 24" id="G"/><path d="M628 24c-324 0-524-230-524-574 0-343 198-582 503-582 237 0 487 146 487 559v75H286c9 234 145 362 343 362 132 0 231-58 273-172l174 48C1024-91 857 24 628 24zM287-650h624c-17-190-120-322-304-322-192 0-309 151-320 322" id="H"/><path d="M538 24C308 24 148-78 108-271l171-41c32 123 123 178 257 178 156 0 256-77 256-169 0-77-54-128-164-154l-186-44c-203-48-300-148-300-305 0-192 176-326 414-326 230 0 351 112 402 269l-163 42c-31-80-94-158-238-158-133 0-233 69-233 162 0 83 57 129 188 160l169 40c203 48 298 149 298 302 0 196-179 339-441 339" id="I"/><g id="a"><use transform="matrix(0.009765625,0,0,0.009765625,0,0)" xlink:href="#D"/><use transform="matrix(0.009765625,0,0,0.009765625,12.7734375,0)" xlink:href="#E"/><use transform="matrix(0.009765625,0,0,0.009765625,19.970703125,0)" xlink:href="#F"/><use transform="matrix(0.009765625,0,0,0.009765625,31.962890625,0)" xlink:href="#G"/><use transform="matrix(0.009765625,0,0,0.009765625,43.388671875,0)" xlink:href="#H"/><use transform="matrix(0.009765625,0,0,0.009765625,55.048828125,0)" xlink:href="#I"/><use transform="matrix(0.009765625,0,0,0.009765625,65.60546875,0)" xlink:href="#I"/></g><path d="M645 0H180v-1490h484c435 0 692 280 692 742 0 466-257 748-711 748zM370-168h263c363 0 539-218 539-580 0-358-176-574-521-574H370v1154" id="J"/><path d="M471 26C259 26 90-98 90-318c0-256 228-303 435-329 202-27 287-16 287-108 0-139-79-219-234-219-161 0-248 86-283 164l-173-57c86-203 278-265 451-265 150 0 419 46 419 395V0H815v-152h-12C765-73 660 26 471 26zm31-159c199 0 310-134 310-271v-155c-30 35-226 55-295 64-131 17-246 59-246 186 0 116 97 176 231 176" id="K"/><path d="M598-1118v154H368v674c0 100 37 144 132 144 23 0 62-6 92-12L629-6c-37 13-88 20-134 20-193 0-307-107-307-290v-688H20v-154h168v-266h180v266h230" id="L"/><path d="M677 24c-213 0-288-135-325-197h-20V0H158v-1490h180v551h14c37-59 106-193 324-193 279 0 474 222 474 576 0 356-194 580-473 580zm-27-161c209 0 317-186 317-421 0-232-105-413-317-413-206 0-314 166-314 413 0 249 111 421 314 421" id="M"/><path d="M98-1322v-168h1126v168H757V0H567v-1322H98" id="N"/><path d="M338-1490V0H158v-1490h180" id="O"/><g id="b"><use transform="matrix(0.009765625,0,0,0.009765625,0,0)" xlink:href="#J"/><use transform="matrix(0.009765625,0,0,0.009765625,14.43359375,0)" xlink:href="#K"/><use transform="matrix(0.009765625,0,0,0.009765625,25.6640625,0)" xlink:href="#L"/><use transform="matrix(0.009765625,0,0,0.009765625,32.3046875,0)" xlink:href="#K"/><use transform="matrix(0.009765625,0,0,0.009765625,43.53515625,0)" xlink:href="#M"/><use transform="matrix(0.009765625,0,0,0.009765625,55.9765625,0)" xlink:href="#K"/><use transform="matrix(0.009765625,0,0,0.009765625,67.20703125,0)" xlink:href="#I"/><use transform="matrix(0.009765625,0,0,0.009765625,77.763671875,0)" xlink:href="#H"/><use transform="matrix(0.009765625,0,0,0.009765625,87.861328125,0)" xlink:href="#N"/><use transform="matrix(0.009765625,0,0,0.009765625,99.306640625,0)" xlink:href="#K"/><use transform="matrix(0.009765625,0,0,0.009765625,110.537109375,0)" xlink:href="#M"/><use transform="matrix(0.009765625,0,0,0.009765625,122.783203125,0)" xlink:href="#O"/><use transform="matrix(0.009765625,0,0,0.009765625,127.626953125,0)" xlink:href="#H"/></g><path d="M180 0v-1490h528c311 0 458 177 458 395 0 191-114 278-244 313v14c139 9 302 137 302 371 0 225-148 397-499 397H180zm190-168h350c232 0 321-102 321-231 0-149-120-277-311-277H370v508zm0-668h328c160 0 286-101 286-255 0-129-87-231-280-231H370v486" id="P"/><path d="M158 0v-1118h180V0H158zm91-1301c-68 0-125-53-125-119s57-119 125-119c69 0 126 53 126 119s-57 119-126 119" id="Q"/><g id="c"><use transform="matrix(0.009765625,0,0,0.009765625,0,0)" xlink:href="#P"/><use transform="matrix(0.009765625,0,0,0.009765625,13.0859375,0)" xlink:href="#K"/><use transform="matrix(0.009765625,0,0,0.009765625,24.31640625,0)" xlink:href="#I"/><use transform="matrix(0.009765625,0,0,0.009765625,34.873046875,0)" xlink:href="#Q"/><use transform="matrix(0.009765625,0,0,0.009765625,39.716796875,0)" xlink:href="#G"/></g><path d="M370-1490V0H180v-1490h190" id="R"/><path d="M338-670V0H158v-1118h173l1 207c72-158 192-221 342-221 226 0 378 139 378 422V0H872v-695c0-172-96-275-252-275-161 0-282 109-282 300" id="S"/><path d="M678-1118v154H420V0H240v-964H20v-154h220v-149c0-194 155-293 318-293 85 0 141 18 168 30l-50 154c-19-6-47-17-97-17-111 0-159 58-159 166v109h258" id="T"/><g id="d"><use transform="matrix(0.009765625,0,0,0.009765625,0,0)" xlink:href="#R"/><use transform="matrix(0.009765625,0,0,0.009765625,5.37109375,0)" xlink:href="#S"/><use transform="matrix(0.009765625,0,0,0.009765625,17.1875,0)" xlink:href="#L"/><use transform="matrix(0.009765625,0,0,0.009765625,23.53515625,0)" xlink:href="#H"/><use transform="matrix(0.009765625,0,0,0.009765625,35.1953125,0)" xlink:href="#E"/><use transform="matrix(0.009765625,0,0,0.009765625,43.037109375,0)" xlink:href="#T"/><use transform="matrix(0.009765625,0,0,0.009765625,50.126953125,0)" xlink:href="#K"/><use transform="matrix(0.009765625,0,0,0.009765625,61.357421875,0)" xlink:href="#G"/><use transform="matrix(0.009765625,0,0,0.009765625,72.783203125,0)" xlink:href="#H"/></g><path d="M600 0L52-1490h200c166 485 304 806 458 1336 156-533 285-846 449-1336h202L819 0H600" id="U"/><path d="M409 0L70-1118h191c89 329 165 560 243 925 75-353 154-601 240-925h192c85 325 161 564 235 922 77-354 157-598 244-922h191L1267 0h-179c-86-307-176-590-250-913C763-588 675-308 588 0H409" id="V"/><g id="e"><use transform="matrix(0.009765625,0,0,0.009765625,0,0)" xlink:href="#U"/><use transform="matrix(0.009765625,0,0,0.009765625,13.798828125,0)" xlink:href="#Q"/><use transform="matrix(0.009765625,0,0,0.009765625,18.642578125,0)" xlink:href="#H"/><use transform="matrix(0.009765625,0,0,0.009765625,29.94140625,0)" xlink:href="#V"/><use transform="matrix(0.009765625,0,0,0.009765625,46.30859375,0)" xlink:href="#I"/></g><path d="M783 20c-382 0-661-292-661-764 0-473 279-766 661-766 302 0 548 182 601 489h-190c-42-204-217-313-411-313-268 0-476 208-476 590 0 381 209 588 476 588 195 0 369-110 411-313h190c-52 303-296 489-601 489" id="W"/><path d="M158 0v-1118h175l1 205c55-151 181-225 313-225 147 0 245 90 285 228 53-141 190-228 352-228 194 0 352 125 352 384V0h-181v-749c0-161-105-225-225-225-151 0-243 103-243 244V0H807v-767c0-124-93-207-219-207-131 0-250 92-250 270V0H158" id="X"/><path d="M158 418v-1536h174v179h20c37-59 106-193 324-193 279 0 474 222 474 576 0 356-194 580-473 580-213 0-288-135-325-197h-14v591H158zm492-555c209 0 317-186 317-421 0-232-105-413-317-413-206 0-314 166-314 413 0 249 111 421 314 421" id="Y"/><g id="f"><use transform="matrix(0.009765625,0,0,0.009765625,0,0)" xlink:href="#W"/><use transform="matrix(0.009765625,0,0,0.009765625,14.609375,0)" xlink:href="#F"/><use transform="matrix(0.009765625,0,0,0.009765625,26.6015625,0)" xlink:href="#X"/><use transform="matrix(0.009765625,0,0,0.009765625,44.12109375,0)" xlink:href="#Y"/><use transform="matrix(0.009765625,0,0,0.009765625,56.3671875,0)" xlink:href="#F"/><use transform="matrix(0.009765625,0,0,0.009765625,68.359375,0)" xlink:href="#I"/><use transform="matrix(0.009765625,0,0,0.009765625,78.916015625,0)" xlink:href="#Q"/><use transform="matrix(0.009765625,0,0,0.009765625,83.759765625,0)" xlink:href="#L"/><use transform="matrix(0.009765625,0,0,0.009765625,90.107421875,0)" xlink:href="#H"/></g><g id="g"><use transform="matrix(0.009765625,0,0,0.009765625,0,0)" xlink:href="#N"/><use transform="matrix(0.009765625,0,0,0.009765625,11.77734375,0)" xlink:href="#E"/><use transform="matrix(0.009765625,0,0,0.009765625,19.306640625,0)" xlink:href="#K"/><use transform="matrix(0.009765625,0,0,0.009765625,30.537109375,0)" xlink:href="#S"/><use transform="matrix(0.009765625,0,0,0.009765625,42.353515625,0)" xlink:href="#I"/><use transform="matrix(0.009765625,0,0,0.009765625,52.91015625,0)" xlink:href="#K"/><use transform="matrix(0.009765625,0,0,0.009765625,64.140625,0)" xlink:href="#G"/><use transform="matrix(0.009765625,0,0,0.009765625,75.56640625,0)" xlink:href="#L"/><use transform="matrix(0.009765625,0,0,0.009765625,82.109375,0)" xlink:href="#Q"/><use transform="matrix(0.009765625,0,0,0.009765625,86.953125,0)" xlink:href="#F"/><use transform="matrix(0.009765625,0,0,0.009765625,98.9453125,0)" xlink:href="#S"/><use transform="matrix(0.009765625,0,0,0.009765625,110.76171875,0)" xlink:href="#K"/><use transform="matrix(0.009765625,0,0,0.009765625,121.9921875,0)" xlink:href="#O"/></g><path d="M611 442c-248 0-391-105-460-228l146-94c47 65 117 165 314 165 178 0 307-82 307-266v-224h-17C863-141 792-18 576-18c-268 0-472-195-472-546 0-346 197-568 476-568 216 0 288 133 326 193h17v-179h175V29c0 289-215 413-487 413zm-5-620c203 0 314-146 314-390 0-237-108-403-314-403-213 0-319 180-319 403 0 230 109 390 319 390" id="Z"/><g id="h"><use transform="matrix(0.009765625,0,0,0.009765625,0,0)" xlink:href="#D"/><use transform="matrix(0.009765625,0,0,0.009765625,12.7734375,0)" xlink:href="#E"/><use transform="matrix(0.009765625,0,0,0.009765625,19.970703125,0)" xlink:href="#F"/><use transform="matrix(0.009765625,0,0,0.009765625,31.962890625,0)" xlink:href="#G"/><use transform="matrix(0.009765625,0,0,0.009765625,43.388671875,0)" xlink:href="#H"/><use transform="matrix(0.009765625,0,0,0.009765625,55.048828125,0)" xlink:href="#I"/><use transform="matrix(0.009765625,0,0,0.009765625,65.60546875,0)" xlink:href="#I"/><use transform="matrix(0.009765625,0,0,0.009765625,76.162109375,0)" xlink:href="#Q"/><use transform="matrix(0.009765625,0,0,0.009765625,81.005859375,0)" xlink:href="#S"/><use transform="matrix(0.009765625,0,0,0.009765625,92.822265625,0)" xlink:href="#Z"/></g><path d="M537 14c-226 0-379-139-379-422v-710h180v695c0 172 97 275 253 275 160 0 281-109 281-300v-670h181V0H879v-209C806-46 684 14 537 14" id="aa"/><path d="M692-1560L212 224H46l480-1784h166" id="ab"/><path d="M157-1118h181V80c1 225-123 350-364 338V252c126 9 184-48 183-172v-1198zm91-183c-68 0-125-53-125-119s57-119 125-119c69 0 126 53 126 119s-57 119-126 119" id="ac"/><g id="i"><use transform="matrix(0.009765625,0,0,0.009765625,0,0)" xlink:href="#W"/><use transform="matrix(0.009765625,0,0,0.009765625,14.609375,0)" xlink:href="#F"/><use transform="matrix(0.009765625,0,0,0.009765625,26.6015625,0)" xlink:href="#S"/><use transform="matrix(0.009765625,0,0,0.009765625,38.41796875,0)" xlink:href="#I"/><use transform="matrix(0.009765625,0,0,0.009765625,48.974609375,0)" xlink:href="#aa"/><use transform="matrix(0.009765625,0,0,0.009765625,60.80078125,0)" xlink:href="#X"/><use transform="matrix(0.009765625,0,0,0.009765625,78.3203125,0)" xlink:href="#Y"/><use transform="matrix(0.009765625,0,0,0.009765625,90.56640625,0)" xlink:href="#L"/><use transform="matrix(0.009765625,0,0,0.009765625,97.109375,0)" xlink:href="#Q"/><use transform="matrix(0.009765625,0,0,0.009765625,101.953125,0)" xlink:href="#F"/><use transform="matrix(0.009765625,0,0,0.009765625,113.9453125,0)" xlink:href="#S"/><use transform="matrix(0.009765625,0,0,0.009765625,125.76171875,0)" xlink:href="#ab"/><use transform="matrix(0.009765625,0,0,0.009765625,132.96875,0)" xlink:href="#D"/><use transform="matrix(0.009765625,0,0,0.009765625,145.7421875,0)" xlink:href="#E"/><use transform="matrix(0.009765625,0,0,0.009765625,152.939453125,0)" xlink:href="#F"/><use transform="matrix(0.009765625,0,0,0.009765625,164.931640625,0)" xlink:href="#ac"/><use transform="matrix(0.009765625,0,0,0.009765625,169.775390625,0)" xlink:href="#H"/><use transform="matrix(0.009765625,0,0,0.009765625,181.435546875,0)" xlink:href="#G"/><use transform="matrix(0.009765625,0,0,0.009765625,192.861328125,0)" xlink:href="#L"/><use transform="matrix(0.009765625,0,0,0.009765625,199.404296875,0)" xlink:href="#Q"/><use transform="matrix(0.009765625,0,0,0.009765625,204.248046875,0)" xlink:href="#F"/><use transform="matrix(0.009765625,0,0,0.009765625,216.240234375,0)" xlink:href="#S"/></g><path d="M180 0v-1490h510c348 0 508 194 508 460 0 198-88 351-276 417L1256 0h-220L726-579c-117 2-238 0-356 1V0H180zm190-747h312c235 0 327-108 327-283 0-177-92-293-329-293H370v576" id="ad"/><path d="M180 0v-1490h908v168H370v486h669v168H370v500h727V0H180" id="ae"/><path d="M657 26c-323 0-524-166-541-416h195c15 169 171 246 346 246 202 0 356-106 356-265 5-203-294-238-475-293-239-73-380-191-380-389 0-252 224-419 512-419 294 0 499 171 508 396H992c-17-145-151-228-328-228-193 0-321 102-321 242 0 156 175 211 284 241l149 41c160 44 422 134 422 412 0 244-197 432-541 432" id="af"/><path d="M763 24c-353 0-583-224-583-531v-983h190v968c0 214 149 370 393 370 243 0 391-156 391-370v-968h190v983c0 307-230 531-581 531" id="ag"/><g id="j"><use transform="matrix(0.009765625,0,0,0.009765625,0,0)" xlink:href="#ad"/><use transform="matrix(0.009765625,0,0,0.009765625,12.87109375,0)" xlink:href="#ae"/><use transform="matrix(0.009765625,0,0,0.009765625,24.892578125,0)" xlink:href="#af"/><use transform="matrix(0.009765625,0,0,0.009765625,37.724609375,0)" xlink:href="#ag"/><use transform="matrix(0.009765625,0,0,0.009765625,52.607421875,0)" xlink:href="#ae"/></g><path d="M458 0L52-1490h194c108 439 233 855 324 1313 92-459 221-873 331-1313h216c110 438 234 854 330 1307 92-455 216-869 323-1307h196L1558 0h-221l-256-944c-26-95-50-200-73-331-22 122-44 223-73 331L680 0H458" id="ah"/><g id="k"><use transform="matrix(0.009765625,0,0,0.009765625,0,0)" xlink:href="#U"/><use transform="matrix(0.009765625,0,0,0.009765625,13.798828125,0)" xlink:href="#R"/><use transform="matrix(0.009765625,0,0,0.009765625,19.169921875,0)" xlink:href="#ae"/><use transform="matrix(0.009765625,0,0,0.009765625,31.19140625,0)" xlink:href="#ah"/></g><path d="M180 0v-1490h190v1322h690V0H180" id="ai"/><path d="M52 0l541-1490h220L1361 0h-200l-149-416H398L254 0H52zm404-582h497c-103-290-145-390-251-756-108 377-145 460-246 756" id="aj"/><path d="M600 0v-610L52-1490h220l295 481c50 82 90 150 130 243 40-96 80-164 128-243l294-481h219L790-610V0H600" id="ak"/><g id="l"><use transform="matrix(0.009765625,0,0,0.009765625,0,0)" xlink:href="#ai"/><use transform="matrix(0.009765625,0,0,0.009765625,11.30859375,0)" xlink:href="#aj"/><use transform="matrix(0.009765625,0,0,0.009765625,23.6328125,0)" xlink:href="#ak"/><use transform="matrix(0.009765625,0,0,0.009765625,37.20703125,0)" xlink:href="#ae"/><use transform="matrix(0.009765625,0,0,0.009765625,49.228515625,0)" xlink:href="#ad"/></g><path d="M130 0v-134l666-991c45-67 96-135 147-202-269 9-546 3-821 5v-168h1036v136L502-379c-49 72-103 145-157 216 268-9 546-3 821-5V0H130" id="al"/><path d="M784 20c-382 0-662-292-662-764 0-473 280-766 662-766s660 293 660 766c0 282-99 499-260 629l192 255h-198L1049-33C969 2 880 20 784 20zm-62-486h198l156 205c112-98 183-261 183-483 0-383-209-590-475-590-268 0-477 208-477 590 0 380 209 588 477 588 54 0 106-9 154-25" id="am"/><path d="M934 0v166H0V0h934" id="an"/><g id="m"><use transform="matrix(0.009765625,0,0,0.009765625,0,0)" xlink:href="#al"/><use transform="matrix(0.009765625,0,0,0.009765625,12.578125,0)" xlink:href="#ak"/><use transform="matrix(0.009765625,0,0,0.009765625,26.15234375,0)" xlink:href="#ae"/><use transform="matrix(0.009765625,0,0,0.009765625,38.173828125,0)" xlink:href="#am"/><use transform="matrix(0.009765625,0,0,0.009765625,53.466796875,0)" xlink:href="#ag"/><use transform="matrix(0.009765625,0,0,0.009765625,68.349609375,0)" xlink:href="#R"/><use transform="matrix(0.009765625,0,0,0.009765625,73.720703125,0)" xlink:href="#D"/><use transform="matrix(0.009765625,0,0,0.009765625,86.494140625,0)" xlink:href="#an"/><use transform="matrix(0.009765625,0,0,0.009765625,96.2890625,0)" xlink:href="#D"/><use transform="matrix(0.009765625,0,0,0.009765625,109.0625,0)" xlink:href="#ad"/><use transform="matrix(0.009765625,0,0,0.009765625,121.93359375,0)" xlink:href="#W"/></g><path d="M784 20c-382 0-662-292-662-764 0-473 280-766 662-766s660 293 660 766c0 472-278 764-660 764zm0-176c266 0 475-207 475-588 0-383-209-590-475-590-268 0-477 208-477 590 0 380 209 588 477 588" id="ao"/><path d="M180 0v-1490h270l367 940c28 72 75 218 110 339 35-117 81-264 110-339l362-940h271V0h-187c2-448-5-837 7-1287-157 497-311 829-483 1287H842C666-458 514-784 354-1284c12 438 5 843 7 1284H180" id="ap"/><path d="M180 0v-1490h224l606 953c40 63 108 177 176 312-27-437-7-821-13-1265h190V0h-226C860-448 622-778 356-1262c27 476 11 792 15 1262H180" id="aq"/><g id="n"><use transform="matrix(0.009765625,0,0,0.009765625,0,0)" xlink:href="#al"/><use transform="matrix(0.009765625,0,0,0.009765625,12.578125,0)" xlink:href="#R"/><use transform="matrix(0.009765625,0,0,0.009765625,17.94921875,0)" xlink:href="#an"/><use transform="matrix(0.009765625,0,0,0.009765625,27.744140625,0)" xlink:href="#D"/><use transform="matrix(0.009765625,0,0,0.009765625,40.517578125,0)" xlink:href="#ad"/><use transform="matrix(0.009765625,0,0,0.009765625,53.388671875,0)" xlink:href="#ao"/><use transform="matrix(0.009765625,0,0,0.009765625,68.681640625,0)" xlink:href="#J"/><use transform="matrix(0.009765625,0,0,0.009765625,83.115234375,0)" xlink:href="#ag"/><use transform="matrix(0.009765625,0,0,0.009765625,97.998046875,0)" xlink:href="#W"/><use transform="matrix(0.009765625,0,0,0.009765625,112.607421875,0)" xlink:href="#N"/><use transform="matrix(0.009765625,0,0,0.009765625,125.517578125,0)" xlink:href="#ae"/><use transform="matrix(0.009765625,0,0,0.009765625,137.5390625,0)" xlink:href="#am"/><use transform="matrix(0.009765625,0,0,0.009765625,152.83203125,0)" xlink:href="#ag"/><use transform="matrix(0.009765625,0,0,0.009765625,167.71484375,0)" xlink:href="#R"/><use transform="matrix(0.009765625,0,0,0.009765625,173.0859375,0)" xlink:href="#D"/><use transform="matrix(0.009765625,0,0,0.009765625,185.859375,0)" xlink:href="#ap"/><use transform="matrix(0.009765625,0,0,0.009765625,203.92578125,0)" xlink:href="#ae"/><use transform="matrix(0.009765625,0,0,0.009765625,215.947265625,0)" xlink:href="#aq"/><use transform="matrix(0.009765625,0,0,0.009765625,231.015625,0)" xlink:href="#N"/><use transform="matrix(0.009765625,0,0,0.009765625,242.2265625,0)" xlink:href="#aj"/><use transform="matrix(0.009765625,0,0,0.009765625,256.025390625,0)" xlink:href="#J"/><use transform="matrix(0.009765625,0,0,0.009765625,270.458984375,0)" xlink:href="#J"/><use transform="matrix(0.009765625,0,0,0.009765625,284.892578125,0)" xlink:href="#aq"/><use transform="matrix(0.009765625,0,0,0.009765625,299.9609375,0)" xlink:href="#ai"/><use transform="matrix(0.009765625,0,0,0.009765625,311.26953125,0)" xlink:href="#D"/><use transform="matrix(0.009765625,0,0,0.009765625,324.04296875,0)" xlink:href="#ad"/><use transform="matrix(0.009765625,0,0,0.009765625,336.9140625,0)" xlink:href="#ao"/><use transform="matrix(0.009765625,0,0,0.009765625,352.20703125,0)" xlink:href="#W"/></g><path d="M789 20c-398 0-667-293-667-764 0-473 273-766 655-766 315 0 558 198 612 487h-196c-61-191-204-311-415-311-262 0-471 207-471 590 0 380 208 588 482 588 249 0 420-165 425-427H828v-166h572v163c0 370-256 606-611 606" id="ar"/><g id="o"><use transform="matrix(0.009765625,0,0,0.009765625,0,0)" xlink:href="#al"/><use transform="matrix(0.009765625,0,0,0.009765625,12.578125,0)" xlink:href="#R"/><use transform="matrix(0.009765625,0,0,0.009765625,17.94921875,0)" xlink:href="#an"/><use transform="matrix(0.009765625,0,0,0.009765625,27.744140625,0)" xlink:href="#D"/><use transform="matrix(0.009765625,0,0,0.009765625,40.517578125,0)" xlink:href="#ad"/><use transform="matrix(0.009765625,0,0,0.009765625,53.388671875,0)" xlink:href="#ao"/><use transform="matrix(0.009765625,0,0,0.009765625,68.681640625,0)" xlink:href="#J"/><use transform="matrix(0.009765625,0,0,0.009765625,83.115234375,0)" xlink:href="#ag"/><use transform="matrix(0.009765625,0,0,0.009765625,97.998046875,0)" xlink:href="#W"/><use transform="matrix(0.009765625,0,0,0.009765625,112.607421875,0)" xlink:href="#N"/><use transform="matrix(0.009765625,0,0,0.009765625,125.517578125,0)" xlink:href="#ae"/><use transform="matrix(0.009765625,0,0,0.009765625,137.5390625,0)" xlink:href="#am"/><use transform="matrix(0.009765625,0,0,0.009765625,152.83203125,0)" xlink:href="#ag"/><use transform="matrix(0.009765625,0,0,0.009765625,167.71484375,0)" xlink:href="#R"/><use transform="matrix(0.009765625,0,0,0.009765625,173.0859375,0)" xlink:href="#D"/><use transform="matrix(0.009765625,0,0,0.009765625,185.859375,0)" xlink:href="#ap"/><use transform="matrix(0.009765625,0,0,0.009765625,203.92578125,0)" xlink:href="#ae"/><use transform="matrix(0.009765625,0,0,0.009765625,215.947265625,0)" xlink:href="#aq"/><use transform="matrix(0.009765625,0,0,0.009765625,231.015625,0)" xlink:href="#N"/><use transform="matrix(0.009765625,0,0,0.009765625,242.2265625,0)" xlink:href="#aj"/><use transform="matrix(0.009765625,0,0,0.009765625,256.025390625,0)" xlink:href="#J"/><use transform="matrix(0.009765625,0,0,0.009765625,270.458984375,0)" xlink:href="#J"/><use transform="matrix(0.009765625,0,0,0.009765625,284.892578125,0)" xlink:href="#aq"/><use transform="matrix(0.009765625,0,0,0.009765625,299.9609375,0)" xlink:href="#ai"/><use transform="matrix(0.009765625,0,0,0.009765625,310.703125,0)" xlink:href="#ar"/><use transform="matrix(0.009765625,0,0,0.009765625,325.625,0)" xlink:href="#ao"/><use transform="matrix(0.009765625,0,0,0.009765625,340.244140625,0)" xlink:href="#U"/></g><g id="p"><use transform="matrix(0.009765625,0,0,0.009765625,0,0)" xlink:href="#al"/><use transform="matrix(0.009765625,0,0,0.009765625,12.578125,0)" xlink:href="#R"/><use transform="matrix(0.009765625,0,0,0.009765625,17.94921875,0)" xlink:href="#an"/><use transform="matrix(0.009765625,0,0,0.009765625,27.744140625,0)" xlink:href="#D"/><use transform="matrix(0.009765625,0,0,0.009765625,40.517578125,0)" xlink:href="#ad"/><use transform="matrix(0.009765625,0,0,0.009765625,53.388671875,0)" xlink:href="#ao"/><use transform="matrix(0.009765625,0,0,0.009765625,68.681640625,0)" xlink:href="#J"/><use transform="matrix(0.009765625,0,0,0.009765625,83.115234375,0)" xlink:href="#ag"/><use transform="matrix(0.009765625,0,0,0.009765625,97.998046875,0)" xlink:href="#W"/><use transform="matrix(0.009765625,0,0,0.009765625,112.607421875,0)" xlink:href="#N"/><use transform="matrix(0.009765625,0,0,0.009765625,125.517578125,0)" xlink:href="#ae"/><use transform="matrix(0.009765625,0,0,0.009765625,137.5390625,0)" xlink:href="#am"/><use transform="matrix(0.009765625,0,0,0.009765625,152.83203125,0)" xlink:href="#ag"/><use transform="matrix(0.009765625,0,0,0.009765625,167.71484375,0)" xlink:href="#R"/><use transform="matrix(0.009765625,0,0,0.009765625,173.0859375,0)" xlink:href="#D"/><use transform="matrix(0.009765625,0,0,0.009765625,185.859375,0)" xlink:href="#ap"/><use transform="matrix(0.009765625,0,0,0.009765625,203.92578125,0)" xlink:href="#ae"/><use transform="matrix(0.009765625,0,0,0.009765625,215.947265625,0)" xlink:href="#aq"/><use transform="matrix(0.009765625,0,0,0.009765625,231.015625,0)" xlink:href="#N"/><use transform="matrix(0.009765625,0,0,0.009765625,243.92578125,0)" xlink:href="#J"/><use transform="matrix(0.009765625,0,0,0.009765625,257.67578125,0)" xlink:href="#aj"/><use transform="matrix(0.009765625,0,0,0.009765625,269.775390625,0)" xlink:href="#N"/><use transform="matrix(0.009765625,0,0,0.009765625,280.986328125,0)" xlink:href="#aj"/><use transform="matrix(0.009765625,0,0,0.009765625,294.78515625,0)" xlink:href="#D"/><use transform="matrix(0.009765625,0,0,0.009765625,307.55859375,0)" xlink:href="#ad"/><use transform="matrix(0.009765625,0,0,0.009765625,320.4296875,0)" xlink:href="#ao"/><use transform="matrix(0.009765625,0,0,0.009765625,335.72265625,0)" xlink:href="#W"/><use transform="matrix(0.009765625,0,0,0.009765625,349.541015625,0)" xlink:href="#an"/><use transform="matrix(0.009765625,0,0,0.009765625,357.529296875,0)" xlink:href="#N"/><use transform="matrix(0.009765625,0,0,0.009765625,370.439453125,0)" xlink:href="#D"/></g><path d="M180 0v-1490h190v644h782v-644h190V0h-190v-678H370V0H180" id="as"/><g id="q"><use transform="matrix(0.009765625,0,0,0.009765625,0,0)" xlink:href="#al"/><use transform="matrix(0.009765625,0,0,0.009765625,12.578125,0)" xlink:href="#R"/><use transform="matrix(0.009765625,0,0,0.009765625,17.94921875,0)" xlink:href="#an"/><use transform="matrix(0.009765625,0,0,0.009765625,27.744140625,0)" xlink:href="#D"/><use transform="matrix(0.009765625,0,0,0.009765625,40.517578125,0)" xlink:href="#ad"/><use transform="matrix(0.009765625,0,0,0.009765625,53.388671875,0)" xlink:href="#ao"/><use transform="matrix(0.009765625,0,0,0.009765625,68.681640625,0)" xlink:href="#J"/><use transform="matrix(0.009765625,0,0,0.009765625,83.115234375,0)" xlink:href="#ag"/><use transform="matrix(0.009765625,0,0,0.009765625,97.998046875,0)" xlink:href="#W"/><use transform="matrix(0.009765625,0,0,0.009765625,112.607421875,0)" xlink:href="#N"/><use transform="matrix(0.009765625,0,0,0.009765625,125.517578125,0)" xlink:href="#ae"/><use transform="matrix(0.009765625,0,0,0.009765625,137.5390625,0)" xlink:href="#am"/><use transform="matrix(0.009765625,0,0,0.009765625,152.83203125,0)" xlink:href="#ag"/><use transform="matrix(0.009765625,0,0,0.009765625,167.71484375,0)" xlink:href="#R"/><use transform="matrix(0.009765625,0,0,0.009765625,173.0859375,0)" xlink:href="#D"/><use transform="matrix(0.009765625,0,0,0.009765625,185.859375,0)" xlink:href="#ap"/><use transform="matrix(0.009765625,0,0,0.009765625,203.92578125,0)" xlink:href="#ae"/><use transform="matrix(0.009765625,0,0,0.009765625,215.947265625,0)" xlink:href="#aq"/><use transform="matrix(0.009765625,0,0,0.009765625,231.015625,0)" xlink:href="#N"/><use transform="matrix(0.009765625,0,0,0.009765625,243.92578125,0)" xlink:href="#D"/><use transform="matrix(0.009765625,0,0,0.009765625,256.69921875,0)" xlink:href="#ad"/><use transform="matrix(0.009765625,0,0,0.009765625,269.5703125,0)" xlink:href="#ao"/><use transform="matrix(0.009765625,0,0,0.009765625,284.86328125,0)" xlink:href="#W"/><use transform="matrix(0.009765625,0,0,0.009765625,299.47265625,0)" xlink:href="#W"/><use transform="matrix(0.009765625,0,0,0.009765625,314.08203125,0)" xlink:href="#as"/><use transform="matrix(0.009765625,0,0,0.009765625,328.9453125,0)" xlink:href="#aj"/><use transform="matrix(0.009765625,0,0,0.009765625,342.744140625,0)" xlink:href="#aq"/><use transform="matrix(0.009765625,0,0,0.009765625,357.8125,0)" xlink:href="#ar"/><use transform="matrix(0.009765625,0,0,0.009765625,372.734375,0)" xlink:href="#ae"/></g><g id="r"><use transform="matrix(0.009765625,0,0,0.009765625,0,0)" xlink:href="#al"/><use transform="matrix(0.009765625,0,0,0.009765625,12.578125,0)" xlink:href="#R"/><use transform="matrix(0.009765625,0,0,0.009765625,17.94921875,0)" xlink:href="#an"/><use transform="matrix(0.009765625,0,0,0.009765625,27.744140625,0)" xlink:href="#D"/><use transform="matrix(0.009765625,0,0,0.009765625,40.517578125,0)" xlink:href="#ad"/><use transform="matrix(0.009765625,0,0,0.009765625,53.388671875,0)" xlink:href="#ao"/><use transform="matrix(0.009765625,0,0,0.009765625,68.681640625,0)" xlink:href="#J"/><use transform="matrix(0.009765625,0,0,0.009765625,83.115234375,0)" xlink:href="#ag"/><use transform="matrix(0.009765625,0,0,0.009765625,97.998046875,0)" xlink:href="#W"/><use transform="matrix(0.009765625,0,0,0.009765625,112.607421875,0)" xlink:href="#N"/><use transform="matrix(0.009765625,0,0,0.009765625,125.517578125,0)" xlink:href="#ae"/><use transform="matrix(0.009765625,0,0,0.009765625,137.5390625,0)" xlink:href="#am"/><use transform="matrix(0.009765625,0,0,0.009765625,152.83203125,0)" xlink:href="#ag"/><use transform="matrix(0.009765625,0,0,0.009765625,167.71484375,0)" xlink:href="#R"/><use transform="matrix(0.009765625,0,0,0.009765625,173.0859375,0)" xlink:href="#D"/><use transform="matrix(0.009765625,0,0,0.009765625,185.859375,0)" xlink:href="#ap"/><use transform="matrix(0.009765625,0,0,0.009765625,203.92578125,0)" xlink:href="#ae"/><use transform="matrix(0.009765625,0,0,0.009765625,215.947265625,0)" xlink:href="#aq"/><use transform="matrix(0.009765625,0,0,0.009765625,231.015625,0)" xlink:href="#N"/><use transform="matrix(0.009765625,0,0,0.009765625,242.2265625,0)" xlink:href="#aj"/><use transform="matrix(0.009765625,0,0,0.009765625,256.025390625,0)" xlink:href="#J"/><use transform="matrix(0.009765625,0,0,0.009765625,270.458984375,0)" xlink:href="#J"/><use transform="matrix(0.009765625,0,0,0.009765625,284.892578125,0)" xlink:href="#aq"/><use transform="matrix(0.009765625,0,0,0.009765625,299.9609375,0)" xlink:href="#ai"/><use transform="matrix(0.009765625,0,0,0.009765625,310.703125,0)" xlink:href="#ar"/><use transform="matrix(0.009765625,0,0,0.009765625,325.625,0)" xlink:href="#ao"/><use transform="matrix(0.009765625,0,0,0.009765625,340.244140625,0)" xlink:href="#U"/><use transform="matrix(0.009765625,0,0,0.009765625,354.04296875,0)" xlink:href="#N"/><use transform="matrix(0.009765625,0,0,0.009765625,366.953125,0)" xlink:href="#D"/></g><g id="s"><use transform="matrix(0.009765625,0,0,0.009765625,0,0)" xlink:href="#al"/><use transform="matrix(0.009765625,0,0,0.009765625,11.904296875,0)" xlink:href="#W"/><use transform="matrix(0.009765625,0,0,0.009765625,25.72265625,0)" xlink:href="#an"/><use transform="matrix(0.009765625,0,0,0.009765625,35.517578125,0)" xlink:href="#D"/><use transform="matrix(0.009765625,0,0,0.009765625,48.291015625,0)" xlink:href="#ad"/><use transform="matrix(0.009765625,0,0,0.009765625,61.162109375,0)" xlink:href="#ao"/><use transform="matrix(0.009765625,0,0,0.009765625,76.455078125,0)" xlink:href="#J"/><use transform="matrix(0.009765625,0,0,0.009765625,90.888671875,0)" xlink:href="#ag"/><use transform="matrix(0.009765625,0,0,0.009765625,105.771484375,0)" xlink:href="#W"/><use transform="matrix(0.009765625,0,0,0.009765625,120.380859375,0)" xlink:href="#N"/><use transform="matrix(0.009765625,0,0,0.009765625,133.291015625,0)" xlink:href="#ae"/><use transform="matrix(0.009765625,0,0,0.009765625,145.3125,0)" xlink:href="#am"/><use transform="matrix(0.009765625,0,0,0.009765625,160.60546875,0)" xlink:href="#ag"/><use transform="matrix(0.009765625,0,0,0.009765625,175.48828125,0)" xlink:href="#R"/><use transform="matrix(0.009765625,0,0,0.009765625,180.859375,0)" xlink:href="#D"/><use transform="matrix(0.009765625,0,0,0.009765625,193.6328125,0)" xlink:href="#ap"/><use transform="matrix(0.009765625,0,0,0.009765625,211.69921875,0)" xlink:href="#ae"/><use transform="matrix(0.009765625,0,0,0.009765625,223.720703125,0)" xlink:href="#aq"/><use transform="matrix(0.009765625,0,0,0.009765625,238.7890625,0)" xlink:href="#N"/><use transform="matrix(0.009765625,0,0,0.009765625,250,0)" xlink:href="#aj"/><use transform="matrix(0.009765625,0,0,0.009765625,263.798828125,0)" xlink:href="#J"/><use transform="matrix(0.009765625,0,0,0.009765625,278.232421875,0)" xlink:href="#J"/><use transform="matrix(0.009765625,0,0,0.009765625,292.666015625,0)" xlink:href="#aq"/><use transform="matrix(0.009765625,0,0,0.009765625,307.734375,0)" xlink:href="#ai"/><use transform="matrix(0.009765625,0,0,0.009765625,318.4765625,0)" xlink:href="#ar"/><use transform="matrix(0.009765625,0,0,0.009765625,333.3984375,0)" xlink:href="#ao"/><use transform="matrix(0.009765625,0,0,0.009765625,348.017578125,0)" xlink:href="#U"/><use transform="matrix(0.009765625,0,0,0.009765625,361.81640625,0)" xlink:href="#N"/><use transform="matrix(0.009765625,0,0,0.009765625,374.7265625,0)" xlink:href="#D"/></g><g id="t"><use transform="matrix(0.009765625,0,0,0.009765625,0,0)" xlink:href="#al"/><use transform="matrix(0.009765625,0,0,0.009765625,11.904296875,0)" xlink:href="#W"/><use transform="matrix(0.009765625,0,0,0.009765625,25.72265625,0)" xlink:href="#an"/><use transform="matrix(0.009765625,0,0,0.009765625,35.517578125,0)" xlink:href="#D"/><use transform="matrix(0.009765625,0,0,0.009765625,48.291015625,0)" xlink:href="#ad"/><use transform="matrix(0.009765625,0,0,0.009765625,61.162109375,0)" xlink:href="#ao"/><use transform="matrix(0.009765625,0,0,0.009765625,76.455078125,0)" xlink:href="#J"/><use transform="matrix(0.009765625,0,0,0.009765625,90.888671875,0)" xlink:href="#ag"/><use transform="matrix(0.009765625,0,0,0.009765625,105.771484375,0)" xlink:href="#W"/><use transform="matrix(0.009765625,0,0,0.009765625,120.380859375,0)" xlink:href="#N"/><use transform="matrix(0.009765625,0,0,0.009765625,133.291015625,0)" xlink:href="#ae"/><use transform="matrix(0.009765625,0,0,0.009765625,145.3125,0)" xlink:href="#am"/><use transform="matrix(0.009765625,0,0,0.009765625,160.60546875,0)" xlink:href="#ag"/><use transform="matrix(0.009765625,0,0,0.009765625,175.48828125,0)" xlink:href="#R"/><use transform="matrix(0.009765625,0,0,0.009765625,180.859375,0)" xlink:href="#D"/><use transform="matrix(0.009765625,0,0,0.009765625,193.6328125,0)" xlink:href="#ap"/><use transform="matrix(0.009765625,0,0,0.009765625,211.69921875,0)" xlink:href="#ae"/><use transform="matrix(0.009765625,0,0,0.009765625,223.720703125,0)" xlink:href="#aq"/><use transform="matrix(0.009765625,0,0,0.009765625,238.7890625,0)" xlink:href="#N"/><use transform="matrix(0.009765625,0,0,0.009765625,251.69921875,0)" xlink:href="#J"/><use transform="matrix(0.009765625,0,0,0.009765625,265.44921875,0)" xlink:href="#aj"/><use transform="matrix(0.009765625,0,0,0.009765625,277.548828125,0)" xlink:href="#N"/><use transform="matrix(0.009765625,0,0,0.009765625,288.759765625,0)" xlink:href="#aj"/><use transform="matrix(0.009765625,0,0,0.009765625,302.55859375,0)" xlink:href="#D"/><use transform="matrix(0.009765625,0,0,0.009765625,315.33203125,0)" xlink:href="#ad"/><use transform="matrix(0.009765625,0,0,0.009765625,328.203125,0)" xlink:href="#ao"/><use transform="matrix(0.009765625,0,0,0.009765625,343.49609375,0)" xlink:href="#W"/><use transform="matrix(0.009765625,0,0,0.009765625,357.314453125,0)" xlink:href="#an"/><use transform="matrix(0.009765625,0,0,0.009765625,365.302734375,0)" xlink:href="#N"/><use transform="matrix(0.009765625,0,0,0.009765625,378.212890625,0)" xlink:href="#D"/></g><g id="u"><use transform="matrix(0.009765625,0,0,0.009765625,0,0)" xlink:href="#al"/><use transform="matrix(0.009765625,0,0,0.009765625,11.904296875,0)" xlink:href="#W"/><use transform="matrix(0.009765625,0,0,0.009765625,25.72265625,0)" xlink:href="#an"/><use transform="matrix(0.009765625,0,0,0.009765625,35.517578125,0)" xlink:href="#D"/><use transform="matrix(0.009765625,0,0,0.009765625,48.291015625,0)" xlink:href="#ad"/><use transform="matrix(0.009765625,0,0,0.009765625,61.162109375,0)" xlink:href="#ao"/><use transform="matrix(0.009765625,0,0,0.009765625,76.455078125,0)" xlink:href="#J"/><use transform="matrix(0.009765625,0,0,0.009765625,90.888671875,0)" xlink:href="#ag"/><use transform="matrix(0.009765625,0,0,0.009765625,105.771484375,0)" xlink:href="#W"/><use transform="matrix(0.009765625,0,0,0.009765625,120.380859375,0)" xlink:href="#N"/><use transform="matrix(0.009765625,0,0,0.009765625,133.291015625,0)" xlink:href="#ae"/><use transform="matrix(0.009765625,0,0,0.009765625,145.3125,0)" xlink:href="#am"/><use transform="matrix(0.009765625,0,0,0.009765625,160.60546875,0)" xlink:href="#ag"/><use transform="matrix(0.009765625,0,0,0.009765625,175.48828125,0)" xlink:href="#R"/><use transform="matrix(0.009765625,0,0,0.009765625,180.859375,0)" xlink:href="#D"/><use transform="matrix(0.009765625,0,0,0.009765625,193.6328125,0)" xlink:href="#ap"/><use transform="matrix(0.009765625,0,0,0.009765625,211.69921875,0)" xlink:href="#ae"/><use transform="matrix(0.009765625,0,0,0.009765625,223.720703125,0)" xlink:href="#aq"/><use transform="matrix(0.009765625,0,0,0.009765625,238.7890625,0)" xlink:href="#N"/><use transform="matrix(0.009765625,0,0,0.009765625,251.69921875,0)" xlink:href="#D"/><use transform="matrix(0.009765625,0,0,0.009765625,264.47265625,0)" xlink:href="#ad"/><use transform="matrix(0.009765625,0,0,0.009765625,277.34375,0)" xlink:href="#ao"/><use transform="matrix(0.009765625,0,0,0.009765625,292.63671875,0)" xlink:href="#W"/><use transform="matrix(0.009765625,0,0,0.009765625,307.24609375,0)" xlink:href="#W"/><use transform="matrix(0.009765625,0,0,0.009765625,321.85546875,0)" xlink:href="#as"/><use transform="matrix(0.009765625,0,0,0.009765625,336.71875,0)" xlink:href="#aj"/><use transform="matrix(0.009765625,0,0,0.009765625,350.517578125,0)" xlink:href="#aq"/><use transform="matrix(0.009765625,0,0,0.009765625,365.5859375,0)" xlink:href="#ar"/><use transform="matrix(0.009765625,0,0,0.009765625,380.5078125,0)" xlink:href="#ae"/></g><path d="M577 24c-279 0-473-224-473-580 0-354 195-576 474-576 218 0 287 134 324 193h14v-551h180V0H922v-173h-20C865-111 790 24 577 24zm27-161c203 0 314-172 314-421 0-247-108-413-314-413-212 0-317 181-317 413 0 235 108 421 317 421" id="at"/><g id="v"><use transform="matrix(0.009765625,0,0,0.009765625,0,0)" xlink:href="#ap"/><use transform="matrix(0.009765625,0,0,0.009765625,18.06640625,0)" xlink:href="#H"/><use transform="matrix(0.009765625,0,0,0.009765625,29.7265625,0)" xlink:href="#L"/><use transform="matrix(0.009765625,0,0,0.009765625,36.3671875,0)" xlink:href="#K"/><use transform="matrix(0.009765625,0,0,0.009765625,47.59765625,0)" xlink:href="#at"/><use transform="matrix(0.009765625,0,0,0.009765625,59.84375,0)" xlink:href="#K"/><use transform="matrix(0.009765625,0,0,0.009765625,71.07421875,0)" xlink:href="#L"/><use transform="matrix(0.009765625,0,0,0.009765625,77.71484375,0)" xlink:href="#K"/></g><path d="M65 0l393-574-370-544h210c88 136 192 297 267 435 67-142 176-302 264-435h206L661-564 1053 0H844c-94-144-206-310-287-458C484-308 366-142 273 0H65" id="au"/><g id="w"><use transform="matrix(0.009765625,0,0,0.009765625,0,0)" xlink:href="#ae"/><use transform="matrix(0.009765625,0,0,0.009765625,12.021484375,0)" xlink:href="#au"/><use transform="matrix(0.009765625,0,0,0.009765625,23.330078125,0)" xlink:href="#L"/><use transform="matrix(0.009765625,0,0,0.009765625,29.677734375,0)" xlink:href="#H"/><use transform="matrix(0.009765625,0,0,0.009765625,41.337890625,0)" xlink:href="#S"/><use transform="matrix(0.009765625,0,0,0.009765625,53.154296875,0)" xlink:href="#I"/><use transform="matrix(0.009765625,0,0,0.009765625,63.7109375,0)" xlink:href="#Q"/><use transform="matrix(0.009765625,0,0,0.009765625,68.5546875,0)" xlink:href="#F"/><use transform="matrix(0.009765625,0,0,0.009765625,80.546875,0)" xlink:href="#S"/><use transform="matrix(0.009765625,0,0,0.009765625,92.36328125,0)" xlink:href="#I"/></g><path d="M481 0L54-1118h197c107 314 236 620 325 951 87-331 217-637 324-951h197L670 0H481" id="av"/><g id="x"><use transform="matrix(0.010850694444444444,0,0,0.010850694444444444,0,0)" xlink:href="#ar"/><use transform="matrix(0.010850694444444444,0,0,0.010850694444444444,16.57986111111111,0)" xlink:href="#F"/><use transform="matrix(0.010850694444444444,0,0,0.010850694444444444,29.470486111111104,0)" xlink:href="#av"/><use transform="matrix(0.010850694444444444,0,0,0.010850694444444444,41.525607638888886,0)" xlink:href="#H"/><use transform="matrix(0.010850694444444444,0,0,0.010850694444444444,54.48133680555556,0)" xlink:href="#E"/><use transform="matrix(0.010850694444444444,0,0,0.010850694444444444,63.194444444444436,0)" xlink:href="#S"/><use transform="matrix(0.010850694444444444,0,0,0.010850694444444444,76.32378472222221,0)" xlink:href="#K"/><use transform="matrix(0.010850694444444444,0,0,0.010850694444444444,88.80208333333333,0)" xlink:href="#S"/><use transform="matrix(0.010850694444444444,0,0,0.010850694444444444,101.93142361111111,0)" xlink:href="#G"/><use transform="matrix(0.010850694444444444,0,0,0.010850694444444444,114.6267361111111,0)" xlink:href="#H"/></g><g id="y"><use transform="matrix(0.010850694444444444,0,0,0.010850694444444444,0,0)" xlink:href="#P"/><use transform="matrix(0.010850694444444444,0,0,0.010850694444444444,14.539930555555555,0)" xlink:href="#ao"/></g><g id="z"><use transform="matrix(0.010850694444444444,0,0,0.010850694444444444,0,0)" xlink:href="#aq"/><use transform="matrix(0.010850694444444444,0,0,0.010850694444444444,16.74262152777778,0)" xlink:href="#F"/><use transform="matrix(0.010850694444444444,0,0,0.010850694444444444,30.06727430555556,0)" xlink:href="#at"/><use transform="matrix(0.010850694444444444,0,0,0.010850694444444444,43.674045138888886,0)" xlink:href="#H"/></g><g id="A"><use transform="matrix(0.010850694444444444,0,0,0.010850694444444444,0,0)" xlink:href="#H"/><use transform="matrix(0.010850694444444444,0,0,0.010850694444444444,12.456597222222221,0)" xlink:href="#au"/><use transform="matrix(0.010850694444444444,0,0,0.010850694444444444,25.02170138888889,0)" xlink:href="#L"/><use transform="matrix(0.010850694444444444,0,0,0.010850694444444444,32.07465277777778,0)" xlink:href="#H"/><use transform="matrix(0.010850694444444444,0,0,0.010850694444444444,45.03038194444444,0)" xlink:href="#S"/><use transform="matrix(0.010850694444444444,0,0,0.010850694444444444,58.15972222222222,0)" xlink:href="#I"/><use transform="matrix(0.010850694444444444,0,0,0.010850694444444444,69.88932291666667,0)" xlink:href="#Q"/><use transform="matrix(0.010850694444444444,0,0,0.010850694444444444,75.27126736111111,0)" xlink:href="#F"/><use transform="matrix(0.010850694444444444,0,0,0.010850694444444444,88.59592013888889,0)" xlink:href="#S"/></g><g id="B"><use transform="matrix(0.010850694444444444,0,0,0.010850694444444444,0,0)" xlink:href="#D"/><use transform="matrix(0.010850694444444444,0,0,0.010850694444444444,14.192708333333332,0)" xlink:href="#E"/><use transform="matrix(0.010850694444444444,0,0,0.010850694444444444,22.189670138888886,0)" xlink:href="#F"/><use transform="matrix(0.010850694444444444,0,0,0.010850694444444444,35.514322916666664,0)" xlink:href="#G"/><use transform="matrix(0.010850694444444444,0,0,0.010850694444444444,48.209635416666664,0)" xlink:href="#H"/><use transform="matrix(0.010850694444444444,0,0,0.010850694444444444,61.16536458333333,0)" xlink:href="#I"/><use transform="matrix(0.010850694444444444,0,0,0.010850694444444444,72.89496527777777,0)" xlink:href="#I"/></g><path d="M180 0v-1490h901v168H370v510h643v168H370V0H180" id="aw"/><g id="C"><use transform="matrix(0.009765625,0,0,0.009765625,0,0)" xlink:href="#al"/><use transform="matrix(0.009765625,0,0,0.009765625,12.578125,0)" xlink:href="#R"/><use transform="matrix(0.009765625,0,0,0.009765625,17.94921875,0)" xlink:href="#an"/><use transform="matrix(0.009765625,0,0,0.009765625,27.744140625,0)" xlink:href="#D"/><use transform="matrix(0.009765625,0,0,0.009765625,40.517578125,0)" xlink:href="#ad"/><use transform="matrix(0.009765625,0,0,0.009765625,53.388671875,0)" xlink:href="#ao"/><use transform="matrix(0.009765625,0,0,0.009765625,68.681640625,0)" xlink:href="#J"/><use transform="matrix(0.009765625,0,0,0.009765625,83.115234375,0)" xlink:href="#ag"/><use transform="matrix(0.009765625,0,0,0.009765625,97.998046875,0)" xlink:href="#W"/><use transform="matrix(0.009765625,0,0,0.009765625,112.607421875,0)" xlink:href="#N"/><use transform="matrix(0.009765625,0,0,0.009765625,125.517578125,0)" xlink:href="#ae"/><use transform="matrix(0.009765625,0,0,0.009765625,137.5390625,0)" xlink:href="#am"/><use transform="matrix(0.009765625,0,0,0.009765625,152.83203125,0)" xlink:href="#ag"/><use transform="matrix(0.009765625,0,0,0.009765625,167.71484375,0)" xlink:href="#R"/><use transform="matrix(0.009765625,0,0,0.009765625,173.0859375,0)" xlink:href="#D"/><use transform="matrix(0.009765625,0,0,0.009765625,185.859375,0)" xlink:href="#ap"/><use transform="matrix(0.009765625,0,0,0.009765625,203.92578125,0)" xlink:href="#ae"/><use transform="matrix(0.009765625,0,0,0.009765625,215.947265625,0)" xlink:href="#aq"/><use transform="matrix(0.009765625,0,0,0.009765625,231.015625,0)" xlink:href="#N"/><use transform="matrix(0.009765625,0,0,0.009765625,243.92578125,0)" xlink:href="#D"/><use transform="matrix(0.009765625,0,0,0.009765625,256.69921875,0)" xlink:href="#ad"/><use transform="matrix(0.009765625,0,0,0.009765625,269.5703125,0)" xlink:href="#ao"/><use transform="matrix(0.009765625,0,0,0.009765625,284.86328125,0)" xlink:href="#W"/><use transform="matrix(0.009765625,0,0,0.009765625,299.47265625,0)" xlink:href="#ap"/><use transform="matrix(0.009765625,0,0,0.009765625,317.5390625,0)" xlink:href="#ao"/><use transform="matrix(0.009765625,0,0,0.009765625,332.83203125,0)" xlink:href="#J"/><use transform="matrix(0.009765625,0,0,0.009765625,347.265625,0)" xlink:href="#R"/><use transform="matrix(0.009765625,0,0,0.009765625,352.63671875,0)" xlink:href="#aw"/></g></defs></g></svg>